{
  "header": {
    "keySignatures": [
      {
        "key": "C",
        "scale": "major",
        "ticks": 8864640
      }
    ],
    "meta": [
      {
        "text": "Location 1",
        "ticks": 8826240,
        "type": "marker"
      },
      {
        "text": "Location 2",
        "ticks": 9978240,
        "type": "marker"
      },
      {
        "text": "Location 3",
        "ticks": 11130240,
        "type": "marker"
      },
      {
        "text": "Location 4",
        "ticks": 12282240,
        "type": "marker"
      },
      {
        "text": "Location 5",
        "ticks": 13434240,
        "type": "marker"
      },
      {
        "text": "Location 6",
        "ticks": 14586240,
        "type": "marker"
      },
      {
        "text": "Location 7",
        "ticks": 16467840,
        "type": "marker"
      },
      {
        "text": "Location 8",
        "ticks": 18733440,
        "type": "marker"
      },
      {
        "text": "Location 9",
        "ticks": 20653440,
        "type": "marker"
      },
      {
        "text": "Location 10",
        "ticks": 22842240,
        "type": "marker"
      },
      {
        "text": "Location 11",
        "ticks": 24839040,
        "type": "marker"
      },
      {
        "text": "Location 12",
        "ticks": 26682240,
        "type": "marker"
      },
      {
        "text": "Location 13",
        "ticks": 27987840,
        "type": "marker"
      },
      {
        "text": "Location 14",
        "ticks": 29600640,
        "type": "marker"
      },
      {
        "text": "Location 15",
        "ticks": 31136640,
        "type": "marker"
      }
    ],
    "name": "",
    "ppq": 9600,
    "tempos": [
      {
        "bpm": 107.99991360006912,
        "ticks": 0
      },
      {
        "bpm": 107.99991360006912,
        "ticks": 8864640
      },
      {
        "bpm": 96,
        "ticks": 14329440
      },
      {
        "bpm": 107.99991360006912,
        "ticks": 16146240
      },
      {
        "bpm": 140.00014000014,
        "ticks": 24745440
      },
      {
        "bpm": 107.99991360006912,
        "ticks": 26523840
      }
    ],
    "timeSignatures": [
      {
        "ticks": 8864640,
        "timeSignature": [
          4,
          4
        ],
        "measures": 0
      }
    ]
  },
  "tracks": [
    {
      "channel": 0,
      "controlChanges": {},
      "pitchBends": [],
      "instrument": {
        "family": "piano",
        "number": 0,
        "name": "acoustic grand piano"
      },
      "name": "Right Hand.dup1",
      "notes": [
        {
          "duration": 0.489583725,
          "durationTicks": 8460,
          "midi": 69,
          "name": "A4",
          "ticks": 1100,
          "time": 0.06365745833333333,
          "velocity": 0.3937007874015748
        },
        {
          "duration": 0.4768522333333335,
          "durationTicks": 8240,
          "midi": 71,
          "name": "B4",
          "ticks": 9680,
          "time": 0.5601856333333334,
          "velocity": 0.4330708661417323
        },
        {
          "duration": 0.44791702499999997,
          "durationTicks": 7740,
          "midi": 69,
          "name": "A4",
          "ticks": 18000,
          "time": 1.0416675000000002,
          "velocity": 0.3779527559055118
        },
        {
          "duration": 0.23611130000000013,
          "durationTicks": 4080,
          "midi": 67,
          "name": "G4",
          "ticks": 25960,
          "time": 1.5023160166666667,
          "velocity": 0.4645669291338583
        },
        {
          "duration": 0.10069452499999976,
          "durationTicks": 1740,
          "midi": 65,
          "name": "F4",
          "ticks": 32980,
          "time": 1.908566341666667,
          "velocity": 0.3937007874015748
        },
        {
          "duration": 0.06481486666666658,
          "durationTicks": 1120,
          "midi": 64,
          "name": "E4",
          "ticks": 35700,
          "time": 2.065973875,
          "velocity": 0.4409448818897638
        },
        {
          "duration": 0.06481486666666658,
          "durationTicks": 1120,
          "midi": 67,
          "name": "G4",
          "ticks": 38220,
          "time": 2.211807325,
          "velocity": 0.4645669291338583
        },
        {
          "duration": 0.05208337500000004,
          "durationTicks": 900,
          "midi": 64,
          "name": "E4",
          "ticks": 40300,
          "time": 2.332177791666667,
          "velocity": 0.4881889763779528
        },
        {
          "duration": 0.05787041666666681,
          "durationTicks": 1000,
          "midi": 65,
          "name": "F4",
          "ticks": 42740,
          "time": 2.4733816083333338,
          "velocity": 0.49606299212598426
        },
        {
          "duration": 0.06250005000000014,
          "durationTicks": 1080,
          "midi": 64,
          "name": "E4",
          "ticks": 44980,
          "time": 2.603011341666667,
          "velocity": 0.47244094488188976
        },
        {
          "duration": 0.059027825000000256,
          "durationTicks": 1020,
          "midi": 67,
          "name": "G4",
          "ticks": 47440,
          "time": 2.7453725666666666,
          "velocity": 0.41732283464566927
        },
        {
          "duration": 0.46759296666666694,
          "durationTicks": 8080,
          "midi": 69,
          "name": "A4",
          "ticks": 58080,
          "time": 3.3611138,
          "velocity": 0.4251968503937008
        },
        {
          "duration": 0.46412074166666706,
          "durationTicks": 8020,
          "midi": 71,
          "name": "B4",
          "ticks": 65900,
          "time": 3.8136604583333336,
          "velocity": 0.44881889763779526
        },
        {
          "duration": 0.4571762916666664,
          "durationTicks": 7900,
          "midi": 69,
          "name": "A4",
          "ticks": 73700,
          "time": 4.265049708333334,
          "velocity": 0.4409448818897638
        },
        {
          "duration": 0.21875017500000027,
          "durationTicks": 3780,
          "midi": 67,
          "name": "G4",
          "ticks": 82040,
          "time": 4.747688983333333,
          "velocity": 0.4330708661417323
        },
        {
          "duration": 0.05555559999999993,
          "durationTicks": 960,
          "midi": 69,
          "name": "A4",
          "ticks": 89440,
          "time": 5.175930066666667,
          "velocity": 0.5275590551181102
        },
        {
          "duration": 0.05902782499999937,
          "durationTicks": 1020,
          "midi": 64,
          "name": "E4",
          "ticks": 91780,
          "time": 5.311346841666667,
          "velocity": 0.4881889763779528
        },
        {
          "duration": 0.06828709166666691,
          "durationTicks": 1180,
          "midi": 71,
          "name": "B4",
          "ticks": 94140,
          "time": 5.447921025,
          "velocity": 0.5039370078740157
        },
        {
          "duration": 0.05555559999999993,
          "durationTicks": 960,
          "midi": 64,
          "name": "E4",
          "ticks": 96320,
          "time": 5.574078533333334,
          "velocity": 0.5039370078740157
        },
        {
          "duration": 0.05324078333333304,
          "durationTicks": 920,
          "midi": 69,
          "name": "A4",
          "ticks": 98660,
          "time": 5.709495308333334,
          "velocity": 0.5196850393700787
        },
        {
          "duration": 0.07175931666666635,
          "durationTicks": 1240,
          "midi": 64,
          "name": "E4",
          "ticks": 100660,
          "time": 5.825236141666668,
          "velocity": 0.48031496062992124
        },
        {
          "duration": 0.18402792500000054,
          "durationTicks": 3180,
          "midi": 71,
          "name": "B4",
          "ticks": 103560,
          "time": 5.99306035,
          "velocity": 0.4094488188976378
        },
        {
          "duration": 0.26504650833333265,
          "durationTicks": 4580,
          "midi": 67,
          "name": "G4",
          "ticks": 114540,
          "time": 6.628477525000001,
          "velocity": 0.3779527559055118
        },
        {
          "duration": 0.19212978333333375,
          "durationTicks": 3320,
          "midi": 65,
          "name": "F4",
          "ticks": 120060,
          "time": 6.947922225,
          "velocity": 0.31496062992125984
        },
        {
          "duration": 0.174768658333333,
          "durationTicks": 3020,
          "midi": 69,
          "name": "A4",
          "ticks": 124000,
          "time": 7.175931666666667,
          "velocity": 0.4094488188976378
        },
        {
          "duration": 0.0995371166666672,
          "durationTicks": 1720,
          "midi": 65,
          "name": "F4",
          "ticks": 127640,
          "time": 7.386579983333333,
          "velocity": 0.4094488188976378
        },
        {
          "duration": 0.15625012500000057,
          "durationTicks": 2700,
          "midi": 71,
          "name": "B4",
          "ticks": 130720,
          "time": 7.564820866666667,
          "velocity": 0.4251968503937008
        },
        {
          "duration": 0.14467604166666614,
          "durationTicks": 2500,
          "midi": 65,
          "name": "F4",
          "ticks": 133740,
          "time": 7.739589525000001,
          "velocity": 0.3937007874015748
        },
        {
          "duration": 0.1284723250000006,
          "durationTicks": 2220,
          "midi": 69,
          "name": "A4",
          "ticks": 136600,
          "time": 7.905098916666667,
          "velocity": 0.5196850393700787
        },
        {
          "duration": 0.11226860833333241,
          "durationTicks": 1940,
          "midi": 65,
          "name": "F4",
          "ticks": 139160,
          "time": 8.053247183333335,
          "velocity": 0.5039370078740157
        },
        {
          "duration": 0.11689824166666618,
          "durationTicks": 2020,
          "midi": 67,
          "name": "G4",
          "ticks": 142060,
          "time": 8.221071391666667,
          "velocity": 0.5275590551181102
        },
        {
          "duration": 0.1041667499999992,
          "durationTicks": 1800,
          "midi": 65,
          "name": "F4",
          "ticks": 144600,
          "time": 8.368062250000001,
          "velocity": 0.4881889763779528
        },
        {
          "duration": 0.13657418333333382,
          "durationTicks": 2360,
          "midi": 69,
          "name": "A4",
          "ticks": 146940,
          "time": 8.503479025,
          "velocity": 0.5669291338582677
        },
        {
          "duration": 0.08796303333333277,
          "durationTicks": 1520,
          "midi": 65,
          "name": "F4",
          "ticks": 149460,
          "time": 8.649312475,
          "velocity": 0.5275590551181102
        },
        {
          "duration": 0.1377315916666646,
          "durationTicks": 2380,
          "midi": 71,
          "name": "B4",
          "ticks": 151980,
          "time": 8.795145925000002,
          "velocity": 0.5748031496062992
        },
        {
          "duration": 0.16666679999999978,
          "durationTicks": 2880,
          "midi": 65,
          "name": "F4",
          "ticks": 154420,
          "time": 8.936349741666668,
          "velocity": 0.5039370078740157
        },
        {
          "duration": 0.16319457500000212,
          "durationTicks": 2820,
          "midi": 69,
          "name": "A4",
          "ticks": 157400,
          "time": 9.108803583333334,
          "velocity": 0.5039370078740157
        },
        {
          "duration": 0.03472225000000151,
          "durationTicks": 600,
          "midi": 67,
          "name": "G4",
          "ticks": 162780,
          "time": 9.420146425,
          "velocity": 0.6456692913385826
        },
        {
          "duration": 0.039351883333333504,
          "durationTicks": 680,
          "midi": 64,
          "name": "E4",
          "ticks": 162820,
          "time": 9.422461241666667,
          "velocity": 0.5590551181102362
        },
        {
          "duration": 0.04166669999999861,
          "durationTicks": 720,
          "midi": 67,
          "name": "G4",
          "ticks": 165260,
          "time": 9.563665058333335,
          "velocity": 0.5511811023622047
        },
        {
          "duration": 0.03587965833333229,
          "durationTicks": 620,
          "midi": 64,
          "name": "E4",
          "ticks": 165320,
          "time": 9.567137283333334,
          "velocity": 0.6062992125984252
        },
        {
          "duration": 0.04745374166666494,
          "durationTicks": 820,
          "midi": 67,
          "name": "G4",
          "ticks": 167760,
          "time": 9.708341100000002,
          "velocity": 0.5905511811023622
        },
        {
          "duration": 0.04166669999999861,
          "durationTicks": 720,
          "midi": 64,
          "name": "E4",
          "ticks": 167800,
          "time": 9.710655916666669,
          "velocity": 0.5984251968503937
        },
        {
          "duration": 0.03703706666666662,
          "durationTicks": 640,
          "midi": 69,
          "name": "A4",
          "ticks": 183600,
          "time": 10.625008500000002,
          "velocity": 0.7007874015748031
        },
        {
          "duration": 0.04166670000000039,
          "durationTicks": 720,
          "midi": 69,
          "name": "A4",
          "ticks": 186540,
          "time": 10.795147525,
          "velocity": 0.7165354330708661
        },
        {
          "duration": 0.18055569999999932,
          "durationTicks": 3120,
          "midi": 67,
          "name": "G4",
          "ticks": 189620,
          "time": 10.973388408333335,
          "velocity": 0.6929133858267716
        },
        {
          "duration": 0.170139025000001,
          "durationTicks": 2940,
          "midi": 64,
          "name": "E4",
          "ticks": 189720,
          "time": 10.979175450000001,
          "velocity": 0.6141732283464567
        },
        {
          "duration": 0.04166669999999861,
          "durationTicks": 720,
          "midi": 69,
          "name": "A4",
          "ticks": 196220,
          "time": 11.355333158333336,
          "velocity": 0.6220472440944882
        },
        {
          "duration": 0.045138925000001606,
          "durationTicks": 780,
          "midi": 69,
          "name": "A4",
          "ticks": 200520,
          "time": 11.60417595,
          "velocity": 0.5748031496062992
        },
        {
          "duration": 0.3298613750000001,
          "durationTicks": 5700,
          "midi": 67,
          "name": "G4",
          "ticks": 205580,
          "time": 11.897000258333334,
          "velocity": 0.5196850393700787
        },
        {
          "duration": 0.32291692499999947,
          "durationTicks": 5580,
          "midi": 64,
          "name": "E4",
          "ticks": 205880,
          "time": 11.914361383333334,
          "velocity": 0.41732283464566927
        },
        {
          "duration": 0.511574483333332,
          "durationTicks": 8840,
          "midi": 69,
          "name": "A4",
          "ticks": 220000,
          "time": 12.731491666666669,
          "velocity": 0.4330708661417323
        },
        {
          "duration": 0.41898181666666723,
          "durationTicks": 7240,
          "midi": 71,
          "name": "B4",
          "ticks": 229620,
          "time": 13.288205075,
          "velocity": 0.48031496062992124
        },
        {
          "duration": 0.4317133083333342,
          "durationTicks": 7460,
          "midi": 69,
          "name": "A4",
          "ticks": 236980,
          "time": 13.714131341666667,
          "velocity": 0.48031496062992124
        },
        {
          "duration": 0.2118057250000014,
          "durationTicks": 3660,
          "midi": 67,
          "name": "G4",
          "ticks": 244780,
          "time": 14.165520591666667,
          "velocity": 0.4094488188976378
        },
        {
          "duration": 0.0706019083333338,
          "durationTicks": 1220,
          "midi": 65,
          "name": "F4",
          "ticks": 252380,
          "time": 14.605335758333334,
          "velocity": 0.4330708661417323
        },
        {
          "duration": 0.07523154166666579,
          "durationTicks": 1300,
          "midi": 64,
          "name": "E4",
          "ticks": 255240,
          "time": 14.770845150000001,
          "velocity": 0.3858267716535433
        },
        {
          "duration": 0.08449080833333156,
          "durationTicks": 1460,
          "midi": 67,
          "name": "G4",
          "ticks": 257720,
          "time": 14.914363783333336,
          "velocity": 0.5118110236220472
        },
        {
          "duration": 0.05671300833333248,
          "durationTicks": 980,
          "midi": 64,
          "name": "E4",
          "ticks": 260020,
          "time": 15.047465741666668,
          "velocity": 0.49606299212598426
        },
        {
          "duration": 0.06365745833333492,
          "durationTicks": 1100,
          "midi": 65,
          "name": "F4",
          "ticks": 262700,
          "time": 15.202558458333334,
          "velocity": 0.44881889763779526
        },
        {
          "duration": 0.050925966666666156,
          "durationTicks": 880,
          "midi": 64,
          "name": "E4",
          "ticks": 264940,
          "time": 15.332188191666669,
          "velocity": 0.48031496062992124
        },
        {
          "duration": 0.05787041666666681,
          "durationTicks": 1000,
          "midi": 67,
          "name": "G4",
          "ticks": 268180,
          "time": 15.519688341666667,
          "velocity": 0.4094488188976378
        },
        {
          "duration": 0.47453741666666893,
          "durationTicks": 8200,
          "midi": 69,
          "name": "A4",
          "ticks": 276240,
          "time": 15.9861239,
          "velocity": 0.4566929133858268
        },
        {
          "duration": 0.43171330833333244,
          "durationTicks": 7460,
          "midi": 71,
          "name": "B4",
          "ticks": 284000,
          "time": 16.435198333333336,
          "velocity": 0.47244094488188976
        },
        {
          "duration": 0.4560188833333356,
          "durationTicks": 7880,
          "midi": 69,
          "name": "A4",
          "ticks": 291280,
          "time": 16.856494966666666,
          "velocity": 0.5118110236220472
        },
        {
          "duration": 0.2858798583333346,
          "durationTicks": 4940,
          "midi": 67,
          "name": "G4",
          "ticks": 299680,
          "time": 17.342606466666666,
          "velocity": 0.4330708661417323
        },
        {
          "duration": 0.06944449999999946,
          "durationTicks": 1200,
          "midi": 69,
          "name": "A4",
          "ticks": 308200,
          "time": 17.83566241666667,
          "velocity": 0.4330708661417323
        },
        {
          "duration": 0.12847232500000416,
          "durationTicks": 2220,
          "midi": 64,
          "name": "E4",
          "ticks": 310880,
          "time": 17.990755133333334,
          "velocity": 0.4330708661417323
        },
        {
          "duration": 0.10995379166666908,
          "durationTicks": 1900,
          "midi": 71,
          "name": "B4",
          "ticks": 313460,
          "time": 18.140060808333335,
          "velocity": 0.5590551181102362
        },
        {
          "duration": 0.09375007500000265,
          "durationTicks": 1620,
          "midi": 64,
          "name": "E4",
          "ticks": 315860,
          "time": 18.278949808333333,
          "velocity": 0.5433070866141733
        },
        {
          "duration": 0.06018523333333192,
          "durationTicks": 1040,
          "midi": 69,
          "name": "A4",
          "ticks": 318280,
          "time": 18.41899621666667,
          "velocity": 0.5433070866141733
        },
        {
          "duration": 0.07175931666666813,
          "durationTicks": 1240,
          "midi": 64,
          "name": "E4",
          "ticks": 320580,
          "time": 18.552098175,
          "velocity": 0.49606299212598426
        },
        {
          "duration": 0.06597227499999647,
          "durationTicks": 1140,
          "midi": 71,
          "name": "B4",
          "ticks": 323620,
          "time": 18.72802424166667,
          "velocity": 0.4094488188976378
        },
        {
          "duration": 0.2974539416666637,
          "durationTicks": 5140,
          "midi": 67,
          "name": "G4",
          "ticks": 332020,
          "time": 19.21413574166667,
          "velocity": 0.30708661417322836
        },
        {
          "duration": 0.2025464583333303,
          "durationTicks": 3500,
          "midi": 65,
          "name": "F4",
          "ticks": 337780,
          "time": 19.54746934166667,
          "velocity": 0.3228346456692913
        },
        {
          "duration": 0.15046308333333513,
          "durationTicks": 2600,
          "midi": 69,
          "name": "A4",
          "ticks": 341620,
          "time": 19.76969174166667,
          "velocity": 0.4330708661417323
        },
        {
          "duration": 0.09259266666666477,
          "durationTicks": 1600,
          "midi": 65,
          "name": "F4",
          "ticks": 344900,
          "time": 19.959506708333336,
          "velocity": 0.4094488188976378
        },
        {
          "duration": 0.12384269166666684,
          "durationTicks": 2140,
          "midi": 71,
          "name": "B4",
          "ticks": 347720,
          "time": 20.122701283333335,
          "velocity": 0.47244094488188976
        },
        {
          "duration": 0.1145834249999993,
          "durationTicks": 1980,
          "midi": 65,
          "name": "F4",
          "ticks": 350300,
          "time": 20.272006958333336,
          "velocity": 0.3937007874015748
        },
        {
          "duration": 0.11689824166666796,
          "durationTicks": 2020,
          "midi": 69,
          "name": "A4",
          "ticks": 353000,
          "time": 20.428257083333335,
          "velocity": 0.49606299212598426
        },
        {
          "duration": 0.11342601666666496,
          "durationTicks": 1960,
          "midi": 65,
          "name": "F4",
          "ticks": 355640,
          "time": 20.581034983333335,
          "velocity": 0.4566929133858268
        },
        {
          "duration": 0.10532415833333886,
          "durationTicks": 1820,
          "midi": 67,
          "name": "G4",
          "ticks": 358220,
          "time": 20.730340658333333,
          "velocity": 0.5275590551181102
        },
        {
          "duration": 0.11111119999999985,
          "durationTicks": 1920,
          "midi": 65,
          "name": "F4",
          "ticks": 360620,
          "time": 20.869229658333335,
          "velocity": 0.5039370078740157
        },
        {
          "duration": 0.13194455000000005,
          "durationTicks": 2280,
          "midi": 69,
          "name": "A4",
          "ticks": 363200,
          "time": 21.018535333333336,
          "velocity": 0.5669291338582677
        },
        {
          "duration": 0.0821759916666629,
          "durationTicks": 1420,
          "midi": 65,
          "name": "F4",
          "ticks": 365740,
          "time": 21.16552619166667,
          "velocity": 0.5354330708661418
        },
        {
          "duration": 0.13078714166666572,
          "durationTicks": 2260,
          "midi": 71,
          "name": "B4",
          "ticks": 368300,
          "time": 21.313674458333338,
          "velocity": 0.5748031496062992
        },
        {
          "duration": 0.1469908583333357,
          "durationTicks": 2540,
          "midi": 65,
          "name": "F4",
          "ticks": 370640,
          "time": 21.449091233333334,
          "velocity": 0.5196850393700787
        },
        {
          "duration": 0.13657418333333027,
          "durationTicks": 2360,
          "midi": 69,
          "name": "A4",
          "ticks": 373320,
          "time": 21.604183950000003,
          "velocity": 0.5511811023622047
        },
        {
          "duration": 0.12962973333333494,
          "durationTicks": 2240,
          "midi": 64,
          "name": "E4",
          "ticks": 390520,
          "time": 22.599555116666668,
          "velocity": 0.6062992125984252
        },
        {
          "duration": 0.16319457499999857,
          "durationTicks": 2820,
          "midi": 65,
          "name": "F4",
          "ticks": 393060,
          "time": 22.746545975000004,
          "velocity": 0.5826771653543307
        },
        {
          "duration": 0.11574083333333363,
          "durationTicks": 2000,
          "midi": 67,
          "name": "G4",
          "ticks": 395840,
          "time": 22.907425733333337,
          "velocity": 0.5275590551181102
        },
        {
          "duration": 0.04629633333333061,
          "durationTicks": 800,
          "midi": 69,
          "name": "A4",
          "ticks": 399040,
          "time": 23.09261106666667,
          "velocity": 0.5196850393700787
        },
        {
          "duration": 0.04166670000000039,
          "durationTicks": 720,
          "midi": 65,
          "name": "F4",
          "ticks": 399160,
          "time": 23.09955551666667,
          "velocity": 0.5590551181102362
        },
        {
          "duration": 0.04050929166666961,
          "durationTicks": 700,
          "midi": 65,
          "name": "F4",
          "ticks": 403440,
          "time": 23.347240900000003,
          "velocity": 0.6220472440944882
        },
        {
          "duration": 0.04282410833333472,
          "durationTicks": 740,
          "midi": 69,
          "name": "A4",
          "ticks": 403460,
          "time": 23.348398308333334,
          "velocity": 0.5984251968503937
        },
        {
          "duration": 0.053240783333336594,
          "durationTicks": 920,
          "midi": 64,
          "name": "E4",
          "ticks": 451760,
          "time": 26.143539433333334,
          "velocity": 0.5039370078740157
        },
        {
          "duration": 0.05324078333333304,
          "durationTicks": 920,
          "midi": 71,
          "name": "B4",
          "ticks": 451800,
          "time": 26.145854250000003,
          "velocity": 0.48031496062992124
        },
        {
          "duration": 0.05092596666666438,
          "durationTicks": 880,
          "midi": 71,
          "name": "B4",
          "ticks": 458140,
          "time": 26.51275269166667,
          "velocity": 0.5433070866141733
        },
        {
          "duration": 0.05092596666666793,
          "durationTicks": 880,
          "midi": 64,
          "name": "E4",
          "ticks": 458160,
          "time": 26.513910100000004,
          "velocity": 0.5196850393700787
        },
        {
          "duration": 0.4178244083333311,
          "durationTicks": 7220,
          "midi": 64,
          "name": "E4",
          "ticks": 464740,
          "time": 26.894697441666672,
          "velocity": 0.5039370078740157
        },
        {
          "duration": 0.3865743833333326,
          "durationTicks": 6680,
          "midi": 71,
          "name": "B4",
          "ticks": 464760,
          "time": 26.895854850000003,
          "velocity": 0.5196850393700787
        },
        {
          "duration": 0.06365745833333492,
          "durationTicks": 1100,
          "midi": 69,
          "name": "A4",
          "ticks": 477000,
          "time": 27.604188750000002,
          "velocity": 0.4566929133858268
        },
        {
          "duration": 0.05671300833333248,
          "durationTicks": 980,
          "midi": 64,
          "name": "E4",
          "ticks": 477140,
          "time": 27.612290608333335,
          "velocity": 0.4251968503937008
        },
        {
          "duration": 0.054398191666670925,
          "durationTicks": 940,
          "midi": 69,
          "name": "A4",
          "ticks": 483560,
          "time": 27.983818683333332,
          "velocity": 0.5118110236220472
        },
        {
          "duration": 0.05324078333333304,
          "durationTicks": 920,
          "midi": 64,
          "name": "E4",
          "ticks": 483660,
          "time": 27.989605725000004,
          "velocity": 0.4566929133858268
        },
        {
          "duration": 0.4178244083333347,
          "durationTicks": 7220,
          "midi": 69,
          "name": "A4",
          "ticks": 490160,
          "time": 28.365763433333335,
          "velocity": 0.5669291338582677
        },
        {
          "duration": 0.36574103333333596,
          "durationTicks": 6320,
          "midi": 64,
          "name": "E4",
          "ticks": 490300,
          "time": 28.373865291666668,
          "velocity": 0.47244094488188976
        },
        {
          "duration": 0.0497685583333336,
          "durationTicks": 860,
          "midi": 67,
          "name": "G4",
          "ticks": 502560,
          "time": 29.083356600000002,
          "velocity": 0.48031496062992124
        },
        {
          "duration": 0.05208337499999871,
          "durationTicks": 900,
          "midi": 64,
          "name": "E4",
          "ticks": 502720,
          "time": 29.09261586666667,
          "velocity": 0.4330708661417323
        },
        {
          "duration": 0.04861114999999927,
          "durationTicks": 840,
          "midi": 67,
          "name": "G4",
          "ticks": 509020,
          "time": 29.45719949166667,
          "velocity": 0.5118110236220472
        },
        {
          "duration": 0.048611150000006376,
          "durationTicks": 840,
          "midi": 64,
          "name": "E4",
          "ticks": 509060,
          "time": 29.459514308333333,
          "velocity": 0.47244094488188976
        },
        {
          "duration": 0.4421299833333343,
          "durationTicks": 7640,
          "midi": 64,
          "name": "E4",
          "ticks": 515680,
          "time": 29.84261646666667,
          "velocity": 0.4881889763779528
        },
        {
          "duration": 0.45833370000000073,
          "durationTicks": 7920,
          "midi": 67,
          "name": "G4",
          "ticks": 515700,
          "time": 29.843773875000004,
          "velocity": 0.4881889763779528
        },
        {
          "duration": 0.05671300833333248,
          "durationTicks": 980,
          "midi": 67,
          "name": "G4",
          "ticks": 528540,
          "time": 30.586830025,
          "velocity": 0.47244094488188976
        },
        {
          "duration": 0.05208337499999871,
          "durationTicks": 900,
          "midi": 64,
          "name": "E4",
          "ticks": 528600,
          "time": 30.590302250000004,
          "velocity": 0.44881889763779526
        },
        {
          "duration": 0.05092596666666793,
          "durationTicks": 880,
          "midi": 64,
          "name": "E4",
          "ticks": 535040,
          "time": 30.962987733333335,
          "velocity": 0.48031496062992124
        },
        {
          "duration": 0.04629633333333416,
          "durationTicks": 800,
          "midi": 67,
          "name": "G4",
          "ticks": 535080,
          "time": 30.96530255,
          "velocity": 0.4881889763779528
        },
        {
          "duration": 0.3553243583333341,
          "durationTicks": 6140,
          "midi": 67,
          "name": "G4",
          "ticks": 541960,
          "time": 31.36345101666667,
          "velocity": 0.4881889763779528
        },
        {
          "duration": 0.3564817666666684,
          "durationTicks": 6160,
          "midi": 64,
          "name": "E4",
          "ticks": 542160,
          "time": 31.375025100000002,
          "velocity": 0.4330708661417323
        },
        {
          "duration": 0.3298613750000001,
          "durationTicks": 5700,
          "midi": 67,
          "name": "G4",
          "ticks": 554540,
          "time": 32.091460858333335,
          "velocity": 0.5433070866141733
        },
        {
          "duration": 0.15509271666666535,
          "durationTicks": 2680,
          "midi": 65,
          "name": "F4",
          "ticks": 560180,
          "time": 32.41785000833334,
          "velocity": 0.5196850393700787
        },
        {
          "duration": 0.14699085833333214,
          "durationTicks": 2540,
          "midi": 69,
          "name": "A4",
          "ticks": 563020,
          "time": 32.58220199166667,
          "velocity": 0.5354330708661418
        },
        {
          "duration": 0.11342601666667207,
          "durationTicks": 1960,
          "midi": 64,
          "name": "E4",
          "ticks": 565760,
          "time": 32.74076693333333,
          "velocity": 0.5511811023622047
        },
        {
          "duration": 0.1030093416666702,
          "durationTicks": 1780,
          "midi": 67,
          "name": "G4",
          "ticks": 568520,
          "time": 32.900489283333336,
          "velocity": 0.5118110236220472
        },
        {
          "duration": 0.0648148666666657,
          "durationTicks": 1120,
          "midi": 65,
          "name": "F4",
          "ticks": 571200,
          "time": 33.055582,
          "velocity": 0.5196850393700787
        },
        {
          "duration": 0.1458334499999978,
          "durationTicks": 2520,
          "midi": 69,
          "name": "A4",
          "ticks": 573780,
          "time": 33.204887675,
          "velocity": 0.5196850393700787
        },
        {
          "duration": 0.26620391666666876,
          "durationTicks": 4600,
          "midi": 64,
          "name": "E4",
          "ticks": 576620,
          "time": 33.369239658333335,
          "velocity": 0.5511811023622047
        },
        {
          "duration": 0.06018523333332837,
          "durationTicks": 1040,
          "midi": 64,
          "name": "E4",
          "ticks": 600720,
          "time": 34.7639167,
          "velocity": 0.36220472440944884
        },
        {
          "duration": 0.06018523333332837,
          "durationTicks": 1040,
          "midi": 71,
          "name": "B4",
          "ticks": 600760,
          "time": 34.76623151666667,
          "velocity": 0.36220472440944884
        },
        {
          "duration": 0.054398191666670925,
          "durationTicks": 940,
          "midi": 71,
          "name": "B4",
          "ticks": 606980,
          "time": 35.126185508333336,
          "velocity": 0.4566929133858268
        },
        {
          "duration": 0.05787041666666681,
          "durationTicks": 1000,
          "midi": 64,
          "name": "E4",
          "ticks": 607020,
          "time": 35.128500325000005,
          "velocity": 0.44881889763779526
        },
        {
          "duration": 0.4178244083333382,
          "durationTicks": 7220,
          "midi": 64,
          "name": "E4",
          "ticks": 614060,
          "time": 35.535908058333334,
          "velocity": 0.4881889763779528
        },
        {
          "duration": 0.39236142499999715,
          "durationTicks": 6780,
          "midi": 71,
          "name": "B4",
          "ticks": 614100,
          "time": 35.538222875,
          "velocity": 0.48031496062992124
        },
        {
          "duration": 0.0613426416666627,
          "durationTicks": 1060,
          "midi": 69,
          "name": "A4",
          "ticks": 626540,
          "time": 36.25813085833334,
          "velocity": 0.47244094488188976
        },
        {
          "duration": 0.06365745833333847,
          "durationTicks": 1100,
          "midi": 64,
          "name": "E4",
          "ticks": 626760,
          "time": 36.27086235,
          "velocity": 0.3700787401574803
        },
        {
          "duration": 0.05555559999999815,
          "durationTicks": 960,
          "midi": 69,
          "name": "A4",
          "ticks": 633240,
          "time": 36.645862650000005,
          "velocity": 0.48031496062992124
        },
        {
          "duration": 0.059027825000001144,
          "durationTicks": 1020,
          "midi": 64,
          "name": "E4",
          "ticks": 633320,
          "time": 36.650492283333335,
          "velocity": 0.4330708661417323
        },
        {
          "duration": 0.4097225499999979,
          "durationTicks": 7080,
          "midi": 64,
          "name": "E4",
          "ticks": 640080,
          "time": 37.041696300000005,
          "velocity": 0.47244094488188976
        },
        {
          "duration": 0.4282410833333401,
          "durationTicks": 7400,
          "midi": 69,
          "name": "A4",
          "ticks": 640260,
          "time": 37.052112975,
          "velocity": 0.4251968503937008
        },
        {
          "duration": 0.06250005000000414,
          "durationTicks": 1080,
          "midi": 67,
          "name": "G4",
          "ticks": 652880,
          "time": 37.78243763333334,
          "velocity": 0.3937007874015748
        },
        {
          "duration": 0.06712968333333436,
          "durationTicks": 1160,
          "midi": 64,
          "name": "E4",
          "ticks": 653000,
          "time": 37.78938208333334,
          "velocity": 0.3858267716535433
        },
        {
          "duration": 0.060185233333335475,
          "durationTicks": 1040,
          "midi": 64,
          "name": "E4",
          "ticks": 659680,
          "time": 38.17595646666667,
          "velocity": 0.4251968503937008
        },
        {
          "duration": 0.05208337499999516,
          "durationTicks": 900,
          "midi": 67,
          "name": "G4",
          "ticks": 659720,
          "time": 38.17827128333334,
          "velocity": 0.4330708661417323
        },
        {
          "duration": 0.42476885833333,
          "durationTicks": 7340,
          "midi": 64,
          "name": "E4",
          "ticks": 667040,
          "time": 38.60188273333334,
          "velocity": 0.44881889763779526
        },
        {
          "duration": 0.43402812499999754,
          "durationTicks": 7500,
          "midi": 67,
          "name": "G4",
          "ticks": 667160,
          "time": 38.60882718333334,
          "velocity": 0.4094488188976378
        },
        {
          "duration": 0.060185233333335475,
          "durationTicks": 1040,
          "midi": 67,
          "name": "G4",
          "ticks": 680860,
          "time": 39.40165189166667,
          "velocity": 0.4094488188976378
        },
        {
          "duration": 0.06597227499999292,
          "durationTicks": 1140,
          "midi": 64,
          "name": "E4",
          "ticks": 680980,
          "time": 39.40859634166667,
          "velocity": 0.4094488188976378
        },
        {
          "duration": 0.06597227500000002,
          "durationTicks": 1140,
          "midi": 64,
          "name": "E4",
          "ticks": 689340,
          "time": 39.892393025000004,
          "velocity": 0.4409448818897638
        },
        {
          "duration": 0.060185233333335475,
          "durationTicks": 1040,
          "midi": 67,
          "name": "G4",
          "ticks": 689580,
          "time": 39.906281925,
          "velocity": 0.3700787401574803
        },
        {
          "duration": 0.5625004500000017,
          "durationTicks": 9720,
          "midi": 67,
          "name": "G4",
          "ticks": 700260,
          "time": 40.524337975,
          "velocity": 0.4015748031496063
        },
        {
          "duration": 0.46064851666667295,
          "durationTicks": 7960,
          "midi": 64,
          "name": "E4",
          "ticks": 700440,
          "time": 40.53475465,
          "velocity": 0.3464566929133858
        },
        {
          "duration": 0.09259266666666832,
          "durationTicks": 1600,
          "midi": 64,
          "name": "E4",
          "ticks": 716700,
          "time": 41.475727625000005,
          "velocity": 0.3858267716535433
        },
        {
          "duration": 0.12152787499999818,
          "durationTicks": 2100,
          "midi": 71,
          "name": "B4",
          "ticks": 720040,
          "time": 41.66901481666667,
          "velocity": 0.3937007874015748
        },
        {
          "duration": 0.09837970833332577,
          "durationTicks": 1700,
          "midi": 65,
          "name": "F4",
          "ticks": 723140,
          "time": 41.84841310833334,
          "velocity": 0.4330708661417323
        },
        {
          "duration": 0.14467604166665637,
          "durationTicks": 2500,
          "midi": 71,
          "name": "B4",
          "ticks": 725780,
          "time": 42.00119100833334,
          "velocity": 0.3858267716535433
        },
        {
          "duration": 0.08564821666666234,
          "durationTicks": 1480,
          "midi": 67,
          "name": "G4",
          "ticks": 728620,
          "time": 42.16554299166667,
          "velocity": 0.48031496062992124
        },
        {
          "duration": 0.14004640833333326,
          "durationTicks": 2420,
          "midi": 71,
          "name": "B4",
          "ticks": 731380,
          "time": 42.32526534166667,
          "velocity": 0.48031496062992124
        },
        {
          "duration": 0.09490748333333698,
          "durationTicks": 1640,
          "midi": 69,
          "name": "A4",
          "ticks": 734280,
          "time": 42.49308955,
          "velocity": 0.48031496062992124
        },
        {
          "duration": 0.1342593666666616,
          "durationTicks": 2320,
          "midi": 71,
          "name": "B4",
          "ticks": 736880,
          "time": 42.64355263333334,
          "velocity": 0.44881889763779526
        },
        {
          "duration": 0.11226860833333063,
          "durationTicks": 1940,
          "midi": 67,
          "name": "G4",
          "ticks": 740100,
          "time": 42.82989537500001,
          "velocity": 0.4251968503937008
        },
        {
          "duration": 0.14236122500000192,
          "durationTicks": 2460,
          "midi": 71,
          "name": "B4",
          "ticks": 743340,
          "time": 43.017395525000005,
          "velocity": 0.3858267716535433
        },
        {
          "duration": 0.1678242083333359,
          "durationTicks": 2900,
          "midi": 67,
          "name": "G4",
          "ticks": 746540,
          "time": 43.202580858333334,
          "velocity": 0.3779527559055118
        },
        {
          "duration": 0.14351863333333625,
          "durationTicks": 2480,
          "midi": 64,
          "name": "E4",
          "ticks": 750200,
          "time": 43.41438658333333,
          "velocity": 0.3464566929133858
        },
        {
          "duration": 0.3784725249999994,
          "durationTicks": 6540,
          "midi": 69,
          "name": "A4",
          "ticks": 768800,
          "time": 44.490776333333336,
          "velocity": 0.4881889763779528
        },
        {
          "duration": 0.39930587500000314,
          "durationTicks": 6900,
          "midi": 71,
          "name": "B4",
          "ticks": 775800,
          "time": 44.895869250000004,
          "velocity": 0.4645669291338583
        },
        {
          "duration": 0.406250325000002,
          "durationTicks": 7020,
          "midi": 69,
          "name": "A4",
          "ticks": 782900,
          "time": 45.306749208333336,
          "velocity": 0.47244094488188976
        },
        {
          "duration": 0.2372687083333318,
          "durationTicks": 4100,
          "midi": 67,
          "name": "G4",
          "ticks": 790160,
          "time": 45.726888433333336,
          "velocity": 0.49606299212598426
        },
        {
          "duration": 0.06828709166666869,
          "durationTicks": 1180,
          "midi": 65,
          "name": "F4",
          "ticks": 797120,
          "time": 46.129666533333335,
          "velocity": 0.4645669291338583
        },
        {
          "duration": 0.05787041666666681,
          "durationTicks": 1000,
          "midi": 64,
          "name": "E4",
          "ticks": 799840,
          "time": 46.28707406666667,
          "velocity": 0.4881889763779528
        },
        {
          "duration": 0.05555559999999815,
          "durationTicks": 960,
          "midi": 67,
          "name": "G4",
          "ticks": 802460,
          "time": 46.43869455833334,
          "velocity": 0.49606299212598426
        },
        {
          "duration": 0.05555559999999815,
          "durationTicks": 960,
          "midi": 64,
          "name": "E4",
          "ticks": 804620,
          "time": 46.56369465833334,
          "velocity": 0.5039370078740157
        },
        {
          "duration": 0.07175931666667168,
          "durationTicks": 1240,
          "midi": 65,
          "name": "F4",
          "ticks": 807360,
          "time": 46.7222596,
          "velocity": 0.5275590551181102
        },
        {
          "duration": 0.07407413333332613,
          "durationTicks": 1280,
          "midi": 64,
          "name": "E4",
          "ticks": 809940,
          "time": 46.87156527500001,
          "velocity": 0.4566929133858268
        },
        {
          "duration": 0.18402792500000942,
          "durationTicks": 3180,
          "midi": 67,
          "name": "G4",
          "ticks": 812760,
          "time": 47.03475985,
          "velocity": 0.4330708661417323
        },
        {
          "duration": 0.40393550833333336,
          "durationTicks": 6980,
          "midi": 69,
          "name": "A4",
          "ticks": 822840,
          "time": 47.618093650000006,
          "velocity": 0.48031496062992124
        },
        {
          "duration": 0.38425956666667815,
          "durationTicks": 6640,
          "midi": 71,
          "name": "B4",
          "ticks": 829840,
          "time": 48.023186566666666,
          "velocity": 0.5118110236220472
        },
        {
          "duration": 0.4328707166666703,
          "durationTicks": 7480,
          "midi": 69,
          "name": "A4",
          "ticks": 836820,
          "time": 48.42712207500001,
          "velocity": 0.4566929133858268
        },
        {
          "duration": 0.20023164166666874,
          "durationTicks": 3460,
          "midi": 67,
          "name": "G4",
          "ticks": 844540,
          "time": 48.87388169166667,
          "velocity": 0.47244094488188976
        },
        {
          "duration": 0.06828709166666869,
          "durationTicks": 1180,
          "midi": 69,
          "name": "A4",
          "ticks": 851720,
          "time": 49.28939128333334,
          "velocity": 0.4566929133858268
        },
        {
          "duration": 0.05787041666666681,
          "durationTicks": 1000,
          "midi": 64,
          "name": "E4",
          "ticks": 854300,
          "time": 49.43869695833334,
          "velocity": 0.4881889763779528
        },
        {
          "duration": 0.13310195833333438,
          "durationTicks": 2300,
          "midi": 71,
          "name": "B4",
          "ticks": 856980,
          "time": 49.593789675000004,
          "velocity": 0.5669291338582677
        },
        {
          "duration": 0.07291672500000601,
          "durationTicks": 1260,
          "midi": 64,
          "name": "E4",
          "ticks": 859720,
          "time": 49.752354616666665,
          "velocity": 0.48031496062992124
        },
        {
          "duration": 0.0729167249999918,
          "durationTicks": 1260,
          "midi": 69,
          "name": "A4",
          "ticks": 862180,
          "time": 49.894715841666674,
          "velocity": 0.5511811023622047
        },
        {
          "duration": 0.09490748333333698,
          "durationTicks": 1640,
          "midi": 64,
          "name": "E4",
          "ticks": 864780,
          "time": 50.045178925,
          "velocity": 0.4566929133858268
        },
        {
          "duration": 0.07870376666667056,
          "durationTicks": 1360,
          "midi": 71,
          "name": "B4",
          "ticks": 868060,
          "time": 50.23499389166667,
          "velocity": 0.4094488188976378
        },
        {
          "duration": 0.22106499166666538,
          "durationTicks": 3820,
          "midi": 67,
          "name": "G4",
          "ticks": 878380,
          "time": 50.83221659166667,
          "velocity": 0.29133858267716534
        },
        {
          "duration": 0.1111111999999963,
          "durationTicks": 1920,
          "midi": 65,
          "name": "F4",
          "ticks": 882700,
          "time": 51.082216791666674,
          "velocity": 0.3779527559055118
        },
        {
          "duration": 0.12847232500000416,
          "durationTicks": 2220,
          "midi": 69,
          "name": "A4",
          "ticks": 885820,
          "time": 51.26277249166667,
          "velocity": 0.4409448818897638
        },
        {
          "duration": 0.08680562499999667,
          "durationTicks": 1500,
          "midi": 65,
          "name": "F4",
          "ticks": 888700,
          "time": 51.429439291666675,
          "velocity": 0.4094488188976378
        },
        {
          "duration": 0.08449080833333511,
          "durationTicks": 1460,
          "midi": 71,
          "name": "B4",
          "ticks": 891440,
          "time": 51.588004233333336,
          "velocity": 0.44881889763779526
        },
        {
          "duration": 0.12384269166666684,
          "durationTicks": 2140,
          "midi": 65,
          "name": "F4",
          "ticks": 893780,
          "time": 51.72342100833334,
          "velocity": 0.4251968503937008
        },
        {
          "duration": 0.08912044166666533,
          "durationTicks": 1540,
          "midi": 69,
          "name": "A4",
          "ticks": 896400,
          "time": 51.8750415,
          "velocity": 0.49606299212598426
        },
        {
          "duration": 0.087963033333331,
          "durationTicks": 1520,
          "midi": 65,
          "name": "F4",
          "ticks": 898940,
          "time": 52.02203235833334,
          "velocity": 0.4330708661417323
        },
        {
          "duration": 0.09259266666666832,
          "durationTicks": 1600,
          "midi": 67,
          "name": "G4",
          "ticks": 901240,
          "time": 52.15513431666667,
          "velocity": 0.5275590551181102
        },
        {
          "duration": 0.09259266666666832,
          "durationTicks": 1600,
          "midi": 65,
          "name": "F4",
          "ticks": 903620,
          "time": 52.29286590833334,
          "velocity": 0.49606299212598426
        },
        {
          "duration": 0.12037046666667095,
          "durationTicks": 2080,
          "midi": 69,
          "name": "A4",
          "ticks": 905920,
          "time": 52.42596786666667,
          "velocity": 0.5196850393700787
        },
        {
          "duration": 0.08564821666666944,
          "durationTicks": 1480,
          "midi": 65,
          "name": "F4",
          "ticks": 908300,
          "time": 52.56369945833333,
          "velocity": 0.48031496062992124
        },
        {
          "duration": 0.11342601666667207,
          "durationTicks": 1960,
          "midi": 71,
          "name": "B4",
          "ticks": 910860,
          "time": 52.711847725,
          "velocity": 0.5118110236220472
        },
        {
          "duration": 0.14583345000000492,
          "durationTicks": 2520,
          "midi": 65,
          "name": "F4",
          "ticks": 912920,
          "time": 52.831060783333335,
          "velocity": 0.5275590551181102
        },
        {
          "duration": 0.1377315916666646,
          "durationTicks": 2380,
          "midi": 69,
          "name": "A4",
          "ticks": 915580,
          "time": 52.98499609166667,
          "velocity": 0.5433070866141733
        },
        {
          "duration": 0.037037066666663065,
          "durationTicks": 640,
          "midi": 64,
          "name": "E4",
          "ticks": 920840,
          "time": 53.28939448333334,
          "velocity": 0.6141732283464567
        },
        {
          "duration": 0.037037066666663065,
          "durationTicks": 640,
          "midi": 67,
          "name": "G4",
          "ticks": 920940,
          "time": 53.29518152500001,
          "velocity": 0.5905511811023622
        },
        {
          "duration": 0.05671300833333959,
          "durationTicks": 980,
          "midi": 67,
          "name": "G4",
          "ticks": 923320,
          "time": 53.43291311666667,
          "velocity": 0.5590551181102362
        },
        {
          "duration": 0.035879658333328734,
          "durationTicks": 620,
          "midi": 64,
          "name": "E4",
          "ticks": 923560,
          "time": 53.44680201666667,
          "velocity": 0.5826771653543307
        },
        {
          "duration": 0.10995379166666908,
          "durationTicks": 1900,
          "midi": 67,
          "name": "G4",
          "ticks": 926100,
          "time": 53.593792875000005,
          "velocity": 0.6771653543307087
        },
        {
          "duration": 0.053240783333336594,
          "durationTicks": 920,
          "midi": 64,
          "name": "E4",
          "ticks": 926140,
          "time": 53.59610769166667,
          "velocity": 0.6456692913385826
        },
        {
          "duration": 0.03935188333333173,
          "durationTicks": 680,
          "midi": 69,
          "name": "A4",
          "ticks": 943160,
          "time": 54.58106218333334,
          "velocity": 0.6456692913385826
        },
        {
          "duration": 0.04745374166666494,
          "durationTicks": 820,
          "midi": 69,
          "name": "A4",
          "ticks": 946200,
          "time": 54.756988250000006,
          "velocity": 0.6692913385826772
        },
        {
          "duration": 0.21875017499999672,
          "durationTicks": 3780,
          "midi": 67,
          "name": "G4",
          "ticks": 949500,
          "time": 54.94796062500001,
          "velocity": 0.7401574803149606
        },
        {
          "duration": 0.18865755833333253,
          "durationTicks": 3260,
          "midi": 64,
          "name": "E4",
          "ticks": 949540,
          "time": 54.95027544166667,
          "velocity": 0.6929133858267716
        },
        {
          "duration": 0.04166670000000039,
          "durationTicks": 720,
          "midi": 69,
          "name": "A4",
          "ticks": 956100,
          "time": 55.329905375,
          "velocity": 0.6614173228346457
        },
        {
          "duration": 0.09953711666667431,
          "durationTicks": 1720,
          "midi": 69,
          "name": "A4",
          "ticks": 959620,
          "time": 55.53360924166667,
          "velocity": 0.7086614173228346
        },
        {
          "duration": 0.29282430833333706,
          "durationTicks": 5060,
          "midi": 67,
          "name": "G4",
          "ticks": 963880,
          "time": 55.780137216666674,
          "velocity": 0.6850393700787402
        },
        {
          "duration": 0.27777799999999786,
          "durationTicks": 4800,
          "midi": 64,
          "name": "E4",
          "ticks": 963940,
          "time": 55.78360944166667,
          "velocity": 0.6456692913385826
        },
        {
          "duration": 0.37268548333333484,
          "durationTicks": 6440,
          "midi": 69,
          "name": "A4",
          "ticks": 972540,
          "time": 56.281295025000006,
          "velocity": 0.5748031496062992
        },
        {
          "duration": 0.42245404166666845,
          "durationTicks": 7300,
          "midi": 71,
          "name": "B4",
          "ticks": 979780,
          "time": 56.70027684166667,
          "velocity": 0.5039370078740157
        },
        {
          "duration": 0.43402812499999754,
          "durationTicks": 7500,
          "midi": 69,
          "name": "A4",
          "ticks": 987100,
          "time": 57.123888291666674,
          "velocity": 0.5196850393700787
        },
        {
          "duration": 0.23032425833332582,
          "durationTicks": 3980,
          "midi": 67,
          "name": "G4",
          "ticks": 994740,
          "time": 57.56601827500001,
          "velocity": 0.4566929133858268
        },
        {
          "duration": 0.06712968333334146,
          "durationTicks": 1160,
          "midi": 65,
          "name": "F4",
          "ticks": 1001900,
          "time": 57.98037045833333,
          "velocity": 0.48031496062992124
        },
        {
          "duration": 0.07870376666666345,
          "durationTicks": 1360,
          "midi": 64,
          "name": "E4",
          "ticks": 1004720,
          "time": 58.14356503333334,
          "velocity": 0.4881889763779528
        },
        {
          "duration": 0.07175931666666457,
          "durationTicks": 1240,
          "midi": 67,
          "name": "G4",
          "ticks": 1007420,
          "time": 58.29981515833334,
          "velocity": 0.5196850393700787
        },
        {
          "duration": 0.05324078333332949,
          "durationTicks": 920,
          "midi": 64,
          "name": "E4",
          "ticks": 1009640,
          "time": 58.42828748333334,
          "velocity": 0.5196850393700787
        },
        {
          "duration": 0.08564821666666944,
          "durationTicks": 1480,
          "midi": 65,
          "name": "F4",
          "ticks": 1012320,
          "time": 58.58338020000001,
          "velocity": 0.5196850393700787
        },
        {
          "duration": 0.06828709166666869,
          "durationTicks": 1180,
          "midi": 64,
          "name": "E4",
          "ticks": 1014780,
          "time": 58.725741425,
          "velocity": 0.48031496062992124
        },
        {
          "duration": 0.06365745833333136,
          "durationTicks": 1100,
          "midi": 67,
          "name": "G4",
          "ticks": 1018000,
          "time": 58.91208416666667,
          "velocity": 0.4330708661417323
        },
        {
          "duration": 0.42592626666667144,
          "durationTicks": 7360,
          "midi": 69,
          "name": "A4",
          "ticks": 1027400,
          "time": 59.45606608333333,
          "velocity": 0.4409448818897638
        },
        {
          "duration": 0.41087995833333224,
          "durationTicks": 7100,
          "midi": 71,
          "name": "B4",
          "ticks": 1035080,
          "time": 59.90051088333334,
          "velocity": 0.48031496062992124
        },
        {
          "duration": 0.40740773333333635,
          "durationTicks": 7040,
          "midi": 69,
          "name": "A4",
          "ticks": 1042040,
          "time": 60.30328898333334,
          "velocity": 0.49606299212598426
        },
        {
          "duration": 0.2592594666666699,
          "durationTicks": 4480,
          "midi": 67,
          "name": "G4",
          "ticks": 1049700,
          "time": 60.746576375000004,
          "velocity": 0.41732283464566927
        },
        {
          "duration": 0.06481486666665859,
          "durationTicks": 1120,
          "midi": 69,
          "name": "A4",
          "ticks": 1057780,
          "time": 61.214169341666675,
          "velocity": 0.48031496062992124
        },
        {
          "duration": 0.13888899999999893,
          "durationTicks": 2400,
          "midi": 64,
          "name": "E4",
          "ticks": 1060340,
          "time": 61.36231760833334,
          "velocity": 0.4881889763779528
        },
        {
          "duration": 0.13888899999999893,
          "durationTicks": 2400,
          "midi": 71,
          "name": "B4",
          "ticks": 1062880,
          "time": 61.509308466666674,
          "velocity": 0.5669291338582677
        },
        {
          "duration": 0.11921305833333662,
          "durationTicks": 2060,
          "midi": 64,
          "name": "E4",
          "ticks": 1065440,
          "time": 61.65745673333334,
          "velocity": 0.5433070866141733
        },
        {
          "duration": 0.07407413333333324,
          "durationTicks": 1280,
          "midi": 69,
          "name": "A4",
          "ticks": 1068020,
          "time": 61.80676240833334,
          "velocity": 0.5590551181102362
        },
        {
          "duration": 0.12500010000000117,
          "durationTicks": 2160,
          "midi": 64,
          "name": "E4",
          "ticks": 1070320,
          "time": 61.93986436666667,
          "velocity": 0.5196850393700787
        },
        {
          "duration": 0.0648148666666728,
          "durationTicks": 1120,
          "midi": 71,
          "name": "B4",
          "ticks": 1073460,
          "time": 62.121577475,
          "velocity": 0.4645669291338583
        },
        {
          "duration": 0.24768538333332657,
          "durationTicks": 4280,
          "midi": 67,
          "name": "G4",
          "ticks": 1082840,
          "time": 62.66440198333334,
          "velocity": 0.33858267716535434
        },
        {
          "duration": 0.1990742333333273,
          "durationTicks": 3440,
          "midi": 65,
          "name": "F4",
          "ticks": 1087880,
          "time": 62.956068883333344,
          "velocity": 0.3464566929133858
        },
        {
          "duration": 0.1458334499999978,
          "durationTicks": 2520,
          "midi": 69,
          "name": "A4",
          "ticks": 1091540,
          "time": 63.16787460833334,
          "velocity": 0.44881889763779526
        },
        {
          "duration": 0.1226852833333325,
          "durationTicks": 2120,
          "midi": 65,
          "name": "F4",
          "ticks": 1094700,
          "time": 63.350745125,
          "velocity": 0.4330708661417323
        },
        {
          "duration": 0.13310195833333438,
          "durationTicks": 2300,
          "midi": 71,
          "name": "B4",
          "ticks": 1097640,
          "time": 63.52088415000001,
          "velocity": 0.48031496062992124
        },
        {
          "duration": 0.13657418333333737,
          "durationTicks": 2360,
          "midi": 65,
          "name": "F4",
          "ticks": 1100440,
          "time": 63.68292131666667,
          "velocity": 0.4330708661417323
        },
        {
          "duration": 0.12384269166666684,
          "durationTicks": 2140,
          "midi": 69,
          "name": "A4",
          "ticks": 1103180,
          "time": 63.84148625833334,
          "velocity": 0.4881889763779528
        },
        {
          "duration": 0.11574083333334073,
          "durationTicks": 2000,
          "midi": 65,
          "name": "F4",
          "ticks": 1105560,
          "time": 63.979217850000005,
          "velocity": 0.5039370078740157
        },
        {
          "duration": 0.12152787499999818,
          "durationTicks": 2100,
          "midi": 67,
          "name": "G4",
          "ticks": 1108140,
          "time": 64.128523525,
          "velocity": 0.5511811023622047
        },
        {
          "duration": 0.09722229999999854,
          "durationTicks": 1680,
          "midi": 65,
          "name": "F4",
          "ticks": 1110560,
          "time": 64.26856993333334,
          "velocity": 0.5275590551181102
        },
        {
          "duration": 0.13194455000000005,
          "durationTicks": 2280,
          "midi": 69,
          "name": "A4",
          "ticks": 1113000,
          "time": 64.40977375,
          "velocity": 0.5748031496062992
        },
        {
          "duration": 0.09143525833333399,
          "durationTicks": 1580,
          "midi": 65,
          "name": "F4",
          "ticks": 1115440,
          "time": 64.55097756666667,
          "velocity": 0.5826771653543307
        },
        {
          "duration": 0.13194455000000005,
          "durationTicks": 2280,
          "midi": 71,
          "name": "B4",
          "ticks": 1117840,
          "time": 64.68986656666667,
          "velocity": 0.6141732283464567
        },
        {
          "duration": 0.15277789999998959,
          "durationTicks": 2640,
          "midi": 65,
          "name": "F4",
          "ticks": 1120220,
          "time": 64.82759815833334,
          "velocity": 0.5984251968503937
        },
        {
          "duration": 0.13657418333333737,
          "durationTicks": 2360,
          "midi": 69,
          "name": "A4",
          "ticks": 1122880,
          "time": 64.98153346666668,
          "velocity": 0.6220472440944882
        },
        {
          "duration": 0.05439819166667803,
          "durationTicks": 940,
          "midi": 65,
          "name": "F4",
          "ticks": 1125420,
          "time": 65.128524325,
          "velocity": 0.5984251968503937
        },
        {
          "duration": 0.14467604166667059,
          "durationTicks": 2500,
          "midi": 64,
          "name": "E4",
          "ticks": 1141200,
          "time": 66.0417195,
          "velocity": 0.6456692913385826
        },
        {
          "duration": 0.18055569999999932,
          "durationTicks": 3120,
          "midi": 65,
          "name": "F4",
          "ticks": 1143800,
          "time": 66.19218258333333,
          "velocity": 0.6299212598425197
        },
        {
          "duration": 0.1909723750000012,
          "durationTicks": 3300,
          "midi": 67,
          "name": "G4",
          "ticks": 1146480,
          "time": 66.3472753,
          "velocity": 0.5984251968503937
        },
        {
          "duration": 0.041666699999993284,
          "durationTicks": 720,
          "midi": 69,
          "name": "A4",
          "ticks": 1149180,
          "time": 66.503525425,
          "velocity": 0.6456692913385826
        },
        {
          "duration": 0.035879658333328734,
          "durationTicks": 620,
          "midi": 65,
          "name": "F4",
          "ticks": 1149260,
          "time": 66.50815505833334,
          "velocity": 0.6377952755905512
        },
        {
          "duration": 0.04513892500000338,
          "durationTicks": 780,
          "midi": 65,
          "name": "F4",
          "ticks": 1152380,
          "time": 66.68871075833334,
          "velocity": 0.6929133858267716
        },
        {
          "duration": 0.03935188333333883,
          "durationTicks": 680,
          "midi": 69,
          "name": "A4",
          "ticks": 1152400,
          "time": 66.68986816666667,
          "velocity": 0.7007874015748031
        }
      ],
      "endOfTrackTicks": 1263360
    },
    {
      "channel": 0,
      "controlChanges": {},
      "pitchBends": [],
      "instrument": {
        "family": "piano",
        "number": 0,
        "name": "acoustic grand piano"
      },
      "name": "Left Hand.dup1",
      "notes": [
        {
          "duration": 0.18402792499999998,
          "durationTicks": 3180,
          "midi": 57,
          "name": "A3",
          "ticks": 1360,
          "time": 0.07870376666666667,
          "velocity": 0.3543307086614173
        },
        {
          "duration": 0.21990758333333332,
          "durationTicks": 3800,
          "midi": 62,
          "name": "D4",
          "ticks": 5580,
          "time": 0.3229169250000001,
          "velocity": 0.30708661417322836
        },
        {
          "duration": 0.17939829166666665,
          "durationTicks": 3100,
          "midi": 59,
          "name": "B3",
          "ticks": 9840,
          "time": 0.5694449,
          "velocity": 0.28346456692913385
        },
        {
          "duration": 0.18055569999999999,
          "durationTicks": 3120,
          "midi": 62,
          "name": "D4",
          "ticks": 13580,
          "time": 0.7858802583333334,
          "velocity": 0.4015748031496063
        },
        {
          "duration": 0.1990742333333333,
          "durationTicks": 3440,
          "midi": 57,
          "name": "A3",
          "ticks": 17820,
          "time": 1.031250825,
          "velocity": 0.2992125984251969
        },
        {
          "duration": 0.2025464583333334,
          "durationTicks": 3500,
          "midi": 62,
          "name": "D4",
          "ticks": 21740,
          "time": 1.2581028583333336,
          "velocity": 0.3937007874015748
        },
        {
          "duration": 0.19791682500000007,
          "durationTicks": 3420,
          "midi": 55,
          "name": "G3",
          "ticks": 26180,
          "time": 1.5150475083333335,
          "velocity": 0.2440944881889764
        },
        {
          "duration": 0.07523154166666668,
          "durationTicks": 1300,
          "midi": 57,
          "name": "A3",
          "ticks": 33380,
          "time": 1.9317145083333336,
          "velocity": 0.2125984251968504
        },
        {
          "duration": 0.10300934166666664,
          "durationTicks": 1780,
          "midi": 62,
          "name": "D4",
          "ticks": 35760,
          "time": 2.0694461000000004,
          "velocity": 0.4094488188976378
        },
        {
          "duration": 0.079861175,
          "durationTicks": 1380,
          "midi": 60,
          "name": "C4",
          "ticks": 38140,
          "time": 2.2071776916666668,
          "velocity": 0.49606299212598426
        },
        {
          "duration": 0.07523154166666668,
          "durationTicks": 1300,
          "midi": 59,
          "name": "B3",
          "ticks": 40480,
          "time": 2.342594466666667,
          "velocity": 0.48031496062992124
        },
        {
          "duration": 0.10069452499999976,
          "durationTicks": 1740,
          "midi": 57,
          "name": "A3",
          "ticks": 42560,
          "time": 2.4629649333333337,
          "velocity": 0.5275590551181102
        },
        {
          "duration": 0.12731491666666717,
          "durationTicks": 2200,
          "midi": 62,
          "name": "D4",
          "ticks": 45180,
          "time": 2.614585425,
          "velocity": 0.4409448818897638
        },
        {
          "duration": 0.06712968333333302,
          "durationTicks": 1160,
          "midi": 60,
          "name": "C4",
          "ticks": 47480,
          "time": 2.747687383333334,
          "velocity": 0.4251968503937008
        },
        {
          "duration": 0.16898161666666622,
          "durationTicks": 2920,
          "midi": 57,
          "name": "A3",
          "ticks": 58160,
          "time": 3.365743433333334,
          "velocity": 0.3228346456692913
        },
        {
          "duration": 0.20601868333333373,
          "durationTicks": 3560,
          "midi": 62,
          "name": "D4",
          "ticks": 61820,
          "time": 3.5775491583333334,
          "velocity": 0.3858267716535433
        },
        {
          "duration": 0.1817131083333332,
          "durationTicks": 3140,
          "midi": 59,
          "name": "B3",
          "ticks": 65840,
          "time": 3.8101882333333337,
          "velocity": 0.3464566929133858
        },
        {
          "duration": 0.20949090833333273,
          "durationTicks": 3620,
          "midi": 62,
          "name": "D4",
          "ticks": 69580,
          "time": 4.0266235916666675,
          "velocity": 0.4251968503937008
        },
        {
          "duration": 0.16782420833333322,
          "durationTicks": 2900,
          "midi": 57,
          "name": "A3",
          "ticks": 73760,
          "time": 4.268521933333334,
          "velocity": 0.36220472440944884
        },
        {
          "duration": 0.2222224000000006,
          "durationTicks": 3840,
          "midi": 62,
          "name": "D4",
          "ticks": 77640,
          "time": 4.493059150000001,
          "velocity": 0.3779527559055118
        },
        {
          "duration": 0.17129643333333355,
          "durationTicks": 2960,
          "midi": 55,
          "name": "G3",
          "ticks": 82200,
          "time": 4.756948250000001,
          "velocity": 0.3228346456692913
        },
        {
          "duration": 0.10648156666666697,
          "durationTicks": 1840,
          "midi": 62,
          "name": "D4",
          "ticks": 89500,
          "time": 5.179402291666666,
          "velocity": 0.36220472440944884
        },
        {
          "duration": 0.06712968333333347,
          "durationTicks": 1160,
          "midi": 60,
          "name": "C4",
          "ticks": 92320,
          "time": 5.342596866666668,
          "velocity": 0.36220472440944884
        },
        {
          "duration": 0.1018519333333332,
          "durationTicks": 1760,
          "midi": 59,
          "name": "B3",
          "ticks": 94180,
          "time": 5.450235841666667,
          "velocity": 0.44881889763779526
        },
        {
          "duration": 0.06712968333333347,
          "durationTicks": 1160,
          "midi": 60,
          "name": "C4",
          "ticks": 96280,
          "time": 5.571763716666667,
          "velocity": 0.4645669291338583
        },
        {
          "duration": 0.11342601666666674,
          "durationTicks": 1960,
          "midi": 62,
          "name": "D4",
          "ticks": 98820,
          "time": 5.718754575,
          "velocity": 0.5196850393700787
        },
        {
          "duration": 0.11342601666666674,
          "durationTicks": 1960,
          "midi": 60,
          "name": "C4",
          "ticks": 101240,
          "time": 5.858800983333333,
          "velocity": 0.4094488188976378
        },
        {
          "duration": 0.17361124999999955,
          "durationTicks": 3000,
          "midi": 59,
          "name": "B3",
          "ticks": 104100,
          "time": 6.024310375000001,
          "velocity": 0.4015748031496063
        },
        {
          "duration": 0.5335652416666674,
          "durationTicks": 9220,
          "midi": 55,
          "name": "G3",
          "ticks": 114900,
          "time": 6.649310875,
          "velocity": 0.3543307086614173
        },
        {
          "duration": 0.3784725250000003,
          "durationTicks": 6540,
          "midi": 57,
          "name": "A3",
          "ticks": 124300,
          "time": 7.193292791666667,
          "velocity": 0.4330708661417323
        },
        {
          "duration": 0.2997687583333333,
          "durationTicks": 5180,
          "midi": 59,
          "name": "B3",
          "ticks": 131200,
          "time": 7.592598666666667,
          "velocity": 0.4881889763779528
        },
        {
          "duration": 0.2870372666666672,
          "durationTicks": 4960,
          "midi": 57,
          "name": "A3",
          "ticks": 136640,
          "time": 7.907413733333334,
          "velocity": 0.48031496062992124
        },
        {
          "duration": 0.2928243083333335,
          "durationTicks": 5060,
          "midi": 55,
          "name": "G3",
          "ticks": 142180,
          "time": 8.228015841666668,
          "velocity": 0.47244094488188976
        },
        {
          "duration": 0.30208357500000105,
          "durationTicks": 5220,
          "midi": 57,
          "name": "A3",
          "ticks": 147080,
          "time": 8.511580883333334,
          "velocity": 0.5511811023622047
        },
        {
          "duration": 0.29166690000000095,
          "durationTicks": 5040,
          "midi": 59,
          "name": "B3",
          "ticks": 152240,
          "time": 8.810192233333334,
          "velocity": 0.5905511811023622
        },
        {
          "duration": 0.15625012499999968,
          "durationTicks": 2700,
          "midi": 57,
          "name": "A3",
          "ticks": 157540,
          "time": 9.116905441666667,
          "velocity": 0.5511811023622047
        },
        {
          "duration": 0.0439815166666655,
          "durationTicks": 760,
          "midi": 60,
          "name": "C4",
          "ticks": 162960,
          "time": 9.430563100000002,
          "velocity": 0.5118110236220472
        },
        {
          "duration": 0.05787041666666504,
          "durationTicks": 1000,
          "midi": 60,
          "name": "C4",
          "ticks": 165620,
          "time": 9.584498408333335,
          "velocity": 0.33858267716535434
        },
        {
          "duration": 0.1099537916666673,
          "durationTicks": 1900,
          "midi": 60,
          "name": "C4",
          "ticks": 167620,
          "time": 9.700239241666667,
          "velocity": 0.7007874015748031
        },
        {
          "duration": 0.09606489166666776,
          "durationTicks": 1660,
          "midi": 59,
          "name": "B3",
          "ticks": 170260,
          "time": 9.853017141666667,
          "velocity": 0.6456692913385826
        },
        {
          "duration": 0.10648156666666608,
          "durationTicks": 1840,
          "midi": 57,
          "name": "A3",
          "ticks": 172940,
          "time": 10.008109858333334,
          "velocity": 0.5590551181102362
        },
        {
          "duration": 0.05092596666666438,
          "durationTicks": 880,
          "midi": 59,
          "name": "B3",
          "ticks": 175160,
          "time": 10.136582183333335,
          "velocity": 0.6062992125984252
        },
        {
          "duration": 0.09606489166666599,
          "durationTicks": 1660,
          "midi": 55,
          "name": "G3",
          "ticks": 178240,
          "time": 10.314823066666667,
          "velocity": 0.5748031496062992
        },
        {
          "duration": 0.039351883333333504,
          "durationTicks": 680,
          "midi": 57,
          "name": "A3",
          "ticks": 183640,
          "time": 10.627323316666667,
          "velocity": 0.6141732283464567
        },
        {
          "duration": 0.047453741666666716,
          "durationTicks": 820,
          "midi": 57,
          "name": "A3",
          "ticks": 186860,
          "time": 10.813666058333334,
          "velocity": 0.5433070866141733
        },
        {
          "duration": 0.1354167749999995,
          "durationTicks": 2340,
          "midi": 59,
          "name": "B3",
          "ticks": 189640,
          "time": 10.974545816666668,
          "velocity": 0.6299212598425197
        },
        {
          "duration": 0.046296333333332385,
          "durationTicks": 800,
          "midi": 60,
          "name": "C4",
          "ticks": 192780,
          "time": 11.156258925000001,
          "velocity": 0.49606299212598426
        },
        {
          "duration": 0.0497685583333336,
          "durationTicks": 860,
          "midi": 57,
          "name": "A3",
          "ticks": 196400,
          "time": 11.365749833333334,
          "velocity": 0.49606299212598426
        },
        {
          "duration": 0.05902782499999937,
          "durationTicks": 1020,
          "midi": 57,
          "name": "A3",
          "ticks": 200740,
          "time": 11.616907441666667,
          "velocity": 0.4330708661417323
        },
        {
          "duration": 0.34606509166666477,
          "durationTicks": 5980,
          "midi": 59,
          "name": "B3",
          "ticks": 205460,
          "time": 11.890055808333335,
          "velocity": 0.4330708661417323
        },
        {
          "duration": 0.45370406666666696,
          "durationTicks": 7840,
          "midi": 60,
          "name": "C4",
          "ticks": 211960,
          "time": 12.266213516666667,
          "velocity": 0.4330708661417323
        },
        {
          "duration": 0.274305775000002,
          "durationTicks": 4740,
          "midi": 57,
          "name": "A3",
          "ticks": 220360,
          "time": 12.752325016666667,
          "velocity": 0.4094488188976378
        },
        {
          "duration": 0.2430557499999999,
          "durationTicks": 4200,
          "midi": 62,
          "name": "D4",
          "ticks": 225380,
          "time": 13.042834508333334,
          "velocity": 0.4094488188976378
        },
        {
          "duration": 0.17129643333333355,
          "durationTicks": 2960,
          "midi": 59,
          "name": "B3",
          "ticks": 229680,
          "time": 13.291677300000002,
          "velocity": 0.3543307086614173
        },
        {
          "duration": 0.1759260666666691,
          "durationTicks": 3040,
          "midi": 62,
          "name": "D4",
          "ticks": 233380,
          "time": 13.505797841666666,
          "velocity": 0.4015748031496063
        },
        {
          "duration": 0.1331019583333326,
          "durationTicks": 2300,
          "midi": 57,
          "name": "A3",
          "ticks": 237180,
          "time": 13.725705425000001,
          "velocity": 0.3858267716535433
        },
        {
          "duration": 0.11574083333333363,
          "durationTicks": 2000,
          "midi": 62,
          "name": "D4",
          "ticks": 240600,
          "time": 13.923622250000001,
          "velocity": 0.3543307086614173
        },
        {
          "duration": 0.20254645833333562,
          "durationTicks": 3500,
          "midi": 55,
          "name": "G3",
          "ticks": 244740,
          "time": 14.163205775,
          "velocity": 0.3464566929133858
        },
        {
          "duration": 0.1053241583333353,
          "durationTicks": 1820,
          "midi": 57,
          "name": "A3",
          "ticks": 252540,
          "time": 14.614595025,
          "velocity": 0.2677165354330709
        },
        {
          "duration": 0.08564821666666766,
          "durationTicks": 1480,
          "midi": 62,
          "name": "D4",
          "ticks": 255380,
          "time": 14.778947008333335,
          "velocity": 0.4330708661417323
        },
        {
          "duration": 0.1145834249999993,
          "durationTicks": 1980,
          "midi": 60,
          "name": "C4",
          "ticks": 257940,
          "time": 14.927095275000001,
          "velocity": 0.4645669291338583
        },
        {
          "duration": 0.08333340000000078,
          "durationTicks": 1440,
          "midi": 59,
          "name": "B3",
          "ticks": 260600,
          "time": 15.081030583333334,
          "velocity": 0.3700787401574803
        },
        {
          "duration": 0.1203704666666674,
          "durationTicks": 2080,
          "midi": 57,
          "name": "A3",
          "ticks": 262580,
          "time": 15.195614008333335,
          "velocity": 0.5118110236220472
        },
        {
          "duration": 0.10763897500000219,
          "durationTicks": 1860,
          "midi": 62,
          "name": "D4",
          "ticks": 265400,
          "time": 15.358808583333333,
          "velocity": 0.4015748031496063
        },
        {
          "duration": 0.07986117499999956,
          "durationTicks": 1380,
          "midi": 60,
          "name": "C4",
          "ticks": 267900,
          "time": 15.503484625000002,
          "velocity": 0.41732283464566927
        },
        {
          "duration": 0.17129643333333533,
          "durationTicks": 2960,
          "midi": 57,
          "name": "A3",
          "ticks": 276560,
          "time": 16.004642433333334,
          "velocity": 0.28346456692913385
        },
        {
          "duration": 0.1944446000000042,
          "durationTicks": 3360,
          "midi": 62,
          "name": "D4",
          "ticks": 280240,
          "time": 16.217605566666666,
          "velocity": 0.33858267716535434
        },
        {
          "duration": 0.18402792499999876,
          "durationTicks": 3180,
          "midi": 59,
          "name": "B3",
          "ticks": 283860,
          "time": 16.427096475000003,
          "velocity": 0.36220472440944884
        },
        {
          "duration": 0.1932871916666663,
          "durationTicks": 3340,
          "midi": 62,
          "name": "D4",
          "ticks": 287720,
          "time": 16.650476283333337,
          "velocity": 0.4015748031496063
        },
        {
          "duration": 0.12962973333333494,
          "durationTicks": 2240,
          "midi": 57,
          "name": "A3",
          "ticks": 291840,
          "time": 16.8889024,
          "velocity": 0.28346456692913385
        },
        {
          "duration": 0.21643535833333516,
          "durationTicks": 3740,
          "midi": 62,
          "name": "D4",
          "ticks": 295360,
          "time": 17.092606266666667,
          "velocity": 0.33858267716535434
        },
        {
          "duration": 0.20254645833333385,
          "durationTicks": 3500,
          "midi": 55,
          "name": "G3",
          "ticks": 300280,
          "time": 17.377328716666668,
          "velocity": 0.31496062992125984
        },
        {
          "duration": 0.1516204916666659,
          "durationTicks": 2620,
          "midi": 62,
          "name": "D4",
          "ticks": 308000,
          "time": 17.824088333333336,
          "velocity": 0.3779527559055118
        },
        {
          "duration": 0.06944449999999946,
          "durationTicks": 1200,
          "midi": 60,
          "name": "C4",
          "ticks": 311080,
          "time": 18.00232921666667,
          "velocity": 0.4330708661417323
        },
        {
          "duration": 0.13078714166666572,
          "durationTicks": 2260,
          "midi": 59,
          "name": "B3",
          "ticks": 313120,
          "time": 18.12038486666667,
          "velocity": 0.4566929133858268
        },
        {
          "duration": 0.14004640833333326,
          "durationTicks": 2420,
          "midi": 60,
          "name": "C4",
          "ticks": 315400,
          "time": 18.25232941666667,
          "velocity": 0.5196850393700787
        },
        {
          "duration": 0.14583345000000136,
          "durationTicks": 2520,
          "midi": 62,
          "name": "D4",
          "ticks": 318180,
          "time": 18.413209175,
          "velocity": 0.5196850393700787
        },
        {
          "duration": 0.10185193333333586,
          "durationTicks": 1760,
          "midi": 60,
          "name": "C4",
          "ticks": 320860,
          "time": 18.568301891666668,
          "velocity": 0.4330708661417323
        },
        {
          "duration": 0.08101858333333567,
          "durationTicks": 1400,
          "midi": 59,
          "name": "B3",
          "ticks": 324080,
          "time": 18.754644633333335,
          "velocity": 0.31496062992125984
        },
        {
          "duration": 0.5462967333333317,
          "durationTicks": 9440,
          "midi": 55,
          "name": "G3",
          "ticks": 332460,
          "time": 19.239598725000004,
          "velocity": 0.2992125984251969
        },
        {
          "duration": 0.3321761916666688,
          "durationTicks": 5740,
          "midi": 57,
          "name": "A3",
          "ticks": 341880,
          "time": 19.78473805,
          "velocity": 0.3779527559055118
        },
        {
          "duration": 0.28009281666666297,
          "durationTicks": 4840,
          "midi": 59,
          "name": "B3",
          "ticks": 347900,
          "time": 20.133117958333337,
          "velocity": 0.3700787401574803
        },
        {
          "duration": 0.26157428333333144,
          "durationTicks": 4520,
          "midi": 57,
          "name": "A3",
          "ticks": 353140,
          "time": 20.436358941666672,
          "velocity": 0.4409448818897638
        },
        {
          "duration": 0.3020835749999975,
          "durationTicks": 5220,
          "midi": 55,
          "name": "G3",
          "ticks": 358100,
          "time": 20.723396208333337,
          "velocity": 0.5354330708661418
        },
        {
          "duration": 0.2916668999999992,
          "durationTicks": 5040,
          "midi": 57,
          "name": "A3",
          "ticks": 363240,
          "time": 21.02085015,
          "velocity": 0.5275590551181102
        },
        {
          "duration": 0.2916669000000027,
          "durationTicks": 5040,
          "midi": 59,
          "name": "B3",
          "ticks": 368360,
          "time": 21.317146683333334,
          "velocity": 0.5748031496062992
        },
        {
          "duration": 0.11574083333333718,
          "durationTicks": 2000,
          "midi": 57,
          "name": "A3",
          "ticks": 373420,
          "time": 21.609970991666668,
          "velocity": 0.5826771653543307
        },
        {
          "duration": 0.12731491666666273,
          "durationTicks": 2200,
          "midi": 55,
          "name": "G3",
          "ticks": 378600,
          "time": 21.909739750000004,
          "velocity": 0.5196850393700787
        },
        {
          "duration": 0.14120381666666404,
          "durationTicks": 2440,
          "midi": 57,
          "name": "A3",
          "ticks": 380900,
          "time": 22.042841708333338,
          "velocity": 0.4645669291338583
        },
        {
          "duration": 0.15625012500000324,
          "durationTicks": 2700,
          "midi": 59,
          "name": "B3",
          "ticks": 383280,
          "time": 22.1805733,
          "velocity": 0.5511811023622047
        },
        {
          "duration": 0.1585649416666648,
          "durationTicks": 2740,
          "midi": 60,
          "name": "C4",
          "ticks": 385860,
          "time": 22.329878975000003,
          "velocity": 0.5826771653543307
        },
        {
          "duration": 0.11226860833333063,
          "durationTicks": 1940,
          "midi": 62,
          "name": "D4",
          "ticks": 388280,
          "time": 22.469925383333337,
          "velocity": 0.5984251968503937
        },
        {
          "duration": 0.06597227500000358,
          "durationTicks": 1140,
          "midi": 62,
          "name": "D4",
          "ticks": 399100,
          "time": 23.096083291666666,
          "velocity": 0.3937007874015748
        },
        {
          "duration": 0.04513892500000338,
          "durationTicks": 780,
          "midi": 60,
          "name": "C4",
          "ticks": 399180,
          "time": 23.100712925,
          "velocity": 0.47244094488188976
        },
        {
          "duration": 0.04282410833333472,
          "durationTicks": 740,
          "midi": 60,
          "name": "C4",
          "ticks": 403500,
          "time": 23.350713125000002,
          "velocity": 0.5275590551181102
        },
        {
          "duration": 0.04513892499999983,
          "durationTicks": 780,
          "midi": 62,
          "name": "D4",
          "ticks": 403560,
          "time": 23.35418535,
          "velocity": 0.5433070866141733
        },
        {
          "duration": 0.042824108333327615,
          "durationTicks": 740,
          "midi": 60,
          "name": "C4",
          "ticks": 408040,
          "time": 23.61344481666667,
          "velocity": 0.5354330708661418
        },
        {
          "duration": 0.04050929166666961,
          "durationTicks": 700,
          "midi": 60,
          "name": "C4",
          "ticks": 413880,
          "time": 23.95140805,
          "velocity": 0.6929133858267716
        },
        {
          "duration": 1.1226860833333348,
          "durationTicks": 19400,
          "midi": 60,
          "name": "C4",
          "ticks": 422020,
          "time": 24.42247324166667,
          "velocity": 0.7795275590551181
        },
        {
          "duration": 0.3506947250000003,
          "durationTicks": 6060,
          "midi": 60,
          "name": "C4",
          "ticks": 451860,
          "time": 26.149326475000002,
          "velocity": 0.4645669291338583
        },
        {
          "duration": 0.3310187833333309,
          "durationTicks": 5720,
          "midi": 55,
          "name": "G3",
          "ticks": 458480,
          "time": 26.532428633333335,
          "velocity": 0.3937007874015748
        },
        {
          "duration": 0.4236114500000028,
          "durationTicks": 7320,
          "midi": 60,
          "name": "C4",
          "ticks": 464940,
          "time": 26.906271525,
          "velocity": 0.41732283464566927
        },
        {
          "duration": 0.3553243583333341,
          "durationTicks": 6140,
          "midi": 60,
          "name": "C4",
          "ticks": 477060,
          "time": 27.607660975,
          "velocity": 0.4015748031496063
        },
        {
          "duration": 0.34143545833333633,
          "durationTicks": 5900,
          "midi": 57,
          "name": "A3",
          "ticks": 483600,
          "time": 27.9861335,
          "velocity": 0.3937007874015748
        },
        {
          "duration": 0.40625032499999847,
          "durationTicks": 7020,
          "midi": 60,
          "name": "C4",
          "ticks": 490060,
          "time": 28.35997639166667,
          "velocity": 0.44881889763779526
        },
        {
          "duration": 0.36342621666667085,
          "durationTicks": 6280,
          "midi": 60,
          "name": "C4",
          "ticks": 502520,
          "time": 29.081041783333333,
          "velocity": 0.3700787401574803
        },
        {
          "duration": 0.3344910083333339,
          "durationTicks": 5780,
          "midi": 59,
          "name": "B3",
          "ticks": 509320,
          "time": 29.47456061666667,
          "velocity": 0.3858267716535433
        },
        {
          "duration": 0.4629633333333345,
          "durationTicks": 8000,
          "midi": 60,
          "name": "C4",
          "ticks": 515640,
          "time": 29.84030165,
          "velocity": 0.3858267716535433
        },
        {
          "duration": 0.3414354583333328,
          "durationTicks": 5900,
          "midi": 60,
          "name": "C4",
          "ticks": 528580,
          "time": 30.58914484166667,
          "velocity": 0.4015748031496063
        },
        {
          "duration": 0.36921325833333185,
          "durationTicks": 6380,
          "midi": 59,
          "name": "B3",
          "ticks": 534880,
          "time": 30.95372846666667,
          "velocity": 0.3700787401574803
        },
        {
          "duration": 0.33912064166666767,
          "durationTicks": 5860,
          "midi": 60,
          "name": "C4",
          "ticks": 541940,
          "time": 31.362293608333335,
          "velocity": 0.3858267716535433
        },
        {
          "duration": 0.13310195833333438,
          "durationTicks": 2300,
          "midi": 55,
          "name": "G3",
          "ticks": 554660,
          "time": 32.098405308333334,
          "velocity": 0.3779527559055118
        },
        {
          "duration": 0.13541677499999594,
          "durationTicks": 2340,
          "midi": 62,
          "name": "D4",
          "ticks": 557520,
          "time": 32.26391470000001,
          "velocity": 0.33858267716535434
        },
        {
          "duration": 0.1030093416666702,
          "durationTicks": 1780,
          "midi": 57,
          "name": "A3",
          "ticks": 560480,
          "time": 32.43521113333333,
          "velocity": 0.33858267716535434
        },
        {
          "duration": 0.14351863333332915,
          "durationTicks": 2480,
          "midi": 62,
          "name": "D4",
          "ticks": 562980,
          "time": 32.579887175,
          "velocity": 0.5039370078740157
        },
        {
          "duration": 0.11921305833333662,
          "durationTicks": 2060,
          "midi": 59,
          "name": "B3",
          "ticks": 566060,
          "time": 32.758128058333334,
          "velocity": 0.41732283464566927
        },
        {
          "duration": 0.13310195833332727,
          "durationTicks": 2300,
          "midi": 62,
          "name": "D4",
          "ticks": 568560,
          "time": 32.902804100000004,
          "velocity": 0.4881889763779528
        },
        {
          "duration": 0.1493056750000008,
          "durationTicks": 2580,
          "midi": 60,
          "name": "C4",
          "ticks": 571360,
          "time": 33.06484126666667,
          "velocity": 0.44881889763779526
        },
        {
          "duration": 0.15972234999999557,
          "durationTicks": 2760,
          "midi": 62,
          "name": "D4",
          "ticks": 574280,
          "time": 33.23382288333334,
          "velocity": 0.49606299212598426
        },
        {
          "duration": 0.10185193333333586,
          "durationTicks": 1760,
          "midi": 59,
          "name": "B3",
          "ticks": 577360,
          "time": 33.41206376666667,
          "velocity": 0.4251968503937008
        },
        {
          "duration": 0.13310195833332727,
          "durationTicks": 2300,
          "midi": 62,
          "name": "D4",
          "ticks": 579720,
          "time": 33.54863795000001,
          "velocity": 0.5039370078740157
        },
        {
          "duration": 0.09375007500000265,
          "durationTicks": 1620,
          "midi": 57,
          "name": "A3",
          "ticks": 582840,
          "time": 33.72919365,
          "velocity": 0.4251968503937008
        },
        {
          "duration": 0.1458334499999978,
          "durationTicks": 2520,
          "midi": 62,
          "name": "D4",
          "ticks": 585280,
          "time": 33.870397466666674,
          "velocity": 0.4881889763779528
        },
        {
          "duration": 0.1342593666666616,
          "durationTicks": 2320,
          "midi": 59,
          "name": "B3",
          "ticks": 588040,
          "time": 34.03011981666667,
          "velocity": 0.4015748031496063
        },
        {
          "duration": 0.16550939166666723,
          "durationTicks": 2860,
          "midi": 62,
          "name": "D4",
          "ticks": 590840,
          "time": 34.192156983333334,
          "velocity": 0.4251968503937008
        },
        {
          "duration": 0.1412038166666605,
          "durationTicks": 2440,
          "midi": 55,
          "name": "G3",
          "ticks": 594120,
          "time": 34.38197195000001,
          "velocity": 0.4409448818897638
        },
        {
          "duration": 0.18055570000000642,
          "durationTicks": 3120,
          "midi": 62,
          "name": "D4",
          "ticks": 597100,
          "time": 34.55442579166667,
          "velocity": 0.41732283464566927
        },
        {
          "duration": 0.061342641666669806,
          "durationTicks": 1060,
          "midi": 60,
          "name": "C4",
          "ticks": 600780,
          "time": 34.767388925,
          "velocity": 0.4015748031496063
        },
        {
          "duration": 0.37384289166666207,
          "durationTicks": 6460,
          "midi": 55,
          "name": "G3",
          "ticks": 607480,
          "time": 35.15512071666667,
          "velocity": 0.33070866141732286
        },
        {
          "duration": 0.5277782000000002,
          "durationTicks": 9120,
          "midi": 60,
          "name": "C4",
          "ticks": 614340,
          "time": 35.552111775,
          "velocity": 0.41732283464566927
        },
        {
          "duration": 0.33796323333333333,
          "durationTicks": 5840,
          "midi": 60,
          "name": "C4",
          "ticks": 626880,
          "time": 36.2778068,
          "velocity": 0.3937007874015748
        },
        {
          "duration": 0.3831021583333296,
          "durationTicks": 6620,
          "midi": 57,
          "name": "A3",
          "ticks": 633120,
          "time": 36.638918200000006,
          "velocity": 0.4015748031496063
        },
        {
          "duration": 0.428241083333333,
          "durationTicks": 7400,
          "midi": 60,
          "name": "C4",
          "ticks": 640280,
          "time": 37.05327038333334,
          "velocity": 0.3779527559055118
        },
        {
          "duration": 0.3518521333333311,
          "durationTicks": 6080,
          "midi": 60,
          "name": "C4",
          "ticks": 653040,
          "time": 37.791696900000005,
          "velocity": 0.36220472440944884
        },
        {
          "duration": 0.41550959166666956,
          "durationTicks": 7180,
          "midi": 59,
          "name": "B3",
          "ticks": 659540,
          "time": 38.167854608333336,
          "velocity": 0.36220472440944884
        },
        {
          "duration": 0.45601888333334273,
          "durationTicks": 7880,
          "midi": 60,
          "name": "C4",
          "ticks": 667260,
          "time": 38.614614225,
          "velocity": 0.36220472440944884
        },
        {
          "duration": 0.49189854166667146,
          "durationTicks": 8500,
          "midi": 60,
          "name": "C4",
          "ticks": 681000,
          "time": 39.40975375,
          "velocity": 0.33070866141732286
        },
        {
          "duration": 0.5798615750000025,
          "durationTicks": 10020,
          "midi": 59,
          "name": "B3",
          "ticks": 689740,
          "time": 39.91554119166667,
          "velocity": 0.3543307086614173
        },
        {
          "duration": 0.5706023083333349,
          "durationTicks": 9860,
          "midi": 60,
          "name": "C4",
          "ticks": 700620,
          "time": 40.545171325000005,
          "velocity": 0.23622047244094488
        },
        {
          "duration": 0.36921325833333896,
          "durationTicks": 6380,
          "midi": 55,
          "name": "G3",
          "ticks": 716740,
          "time": 41.478042441666666,
          "velocity": 0.2992125984251969
        },
        {
          "duration": 0.28935208333333406,
          "durationTicks": 5000,
          "midi": 57,
          "name": "A3",
          "ticks": 723240,
          "time": 41.854200150000004,
          "velocity": 0.41732283464566927
        },
        {
          "duration": 0.2916669000000027,
          "durationTicks": 5040,
          "midi": 59,
          "name": "B3",
          "ticks": 728580,
          "time": 42.163228175,
          "velocity": 0.3858267716535433
        },
        {
          "duration": 0.3472225000000009,
          "durationTicks": 6000,
          "midi": 60,
          "name": "C4",
          "ticks": 734000,
          "time": 42.476885833333334,
          "velocity": 0.4015748031496063
        },
        {
          "duration": 0.36111140000000574,
          "durationTicks": 6240,
          "midi": 59,
          "name": "B3",
          "ticks": 740260,
          "time": 42.83915464166667,
          "velocity": 0.3700787401574803
        },
        {
          "duration": 0.40277809999999903,
          "durationTicks": 6960,
          "midi": 55,
          "name": "G3",
          "ticks": 747180,
          "time": 43.239617925000005,
          "velocity": 0.3464566929133858
        },
        {
          "duration": 0.20023164166667584,
          "durationTicks": 3460,
          "midi": 60,
          "name": "C4",
          "ticks": 754720,
          "time": 43.675960866666664,
          "velocity": 0.4251968503937008
        },
        {
          "duration": 0.19212978333333552,
          "durationTicks": 3320,
          "midi": 62,
          "name": "D4",
          "ticks": 758300,
          "time": 43.88313695833333,
          "velocity": 0.3700787401574803
        },
        {
          "duration": 0.14699085833333214,
          "durationTicks": 2540,
          "midi": 59,
          "name": "B3",
          "ticks": 761660,
          "time": 44.07758155833334,
          "velocity": 0.4015748031496063
        },
        {
          "duration": 0.2025464583333374,
          "durationTicks": 3500,
          "midi": 55,
          "name": "G3",
          "ticks": 765360,
          "time": 44.2917021,
          "velocity": 0.31496062992125984
        },
        {
          "duration": 0.1377315916666646,
          "durationTicks": 2380,
          "midi": 57,
          "name": "A3",
          "ticks": 769320,
          "time": 44.52086895000001,
          "velocity": 0.3858267716535433
        },
        {
          "duration": 0.16319457500000567,
          "durationTicks": 2820,
          "midi": 62,
          "name": "D4",
          "ticks": 772560,
          "time": 44.7083691,
          "velocity": 0.3937007874015748
        },
        {
          "duration": 0.15393530833333813,
          "durationTicks": 2660,
          "midi": 59,
          "name": "B3",
          "ticks": 775940,
          "time": 44.90397110833334,
          "velocity": 0.3779527559055118
        },
        {
          "duration": 0.1990742333333273,
          "durationTicks": 3440,
          "midi": 62,
          "name": "D4",
          "ticks": 779180,
          "time": 45.09147125833334,
          "velocity": 0.3700787401574803
        },
        {
          "duration": 0.1342593666666687,
          "durationTicks": 2320,
          "midi": 57,
          "name": "A3",
          "ticks": 783340,
          "time": 45.33221219166667,
          "velocity": 0.3228346456692913
        },
        {
          "duration": 0.18055569999999932,
          "durationTicks": 3120,
          "midi": 62,
          "name": "D4",
          "ticks": 786500,
          "time": 45.51508270833334,
          "velocity": 0.4566929133858268
        },
        {
          "duration": 0.1956020083333243,
          "durationTicks": 3380,
          "midi": 55,
          "name": "G3",
          "ticks": 790300,
          "time": 45.734990291666676,
          "velocity": 0.4015748031496063
        },
        {
          "duration": 0.10185193333333586,
          "durationTicks": 1760,
          "midi": 57,
          "name": "A3",
          "ticks": 797000,
          "time": 46.122722083333336,
          "velocity": 0.4409448818897638
        },
        {
          "duration": 0.14814826666666647,
          "durationTicks": 2560,
          "midi": 62,
          "name": "D4",
          "ticks": 799600,
          "time": 46.27318516666667,
          "velocity": 0.49606299212598426
        },
        {
          "duration": 0.13657418333333737,
          "durationTicks": 2360,
          "midi": 60,
          "name": "C4",
          "ticks": 802320,
          "time": 46.430592700000005,
          "velocity": 0.5275590551181102
        },
        {
          "duration": 0.10416674999999742,
          "durationTicks": 1800,
          "midi": 59,
          "name": "B3",
          "ticks": 805020,
          "time": 46.586842825000005,
          "velocity": 0.44881889763779526
        },
        {
          "duration": 0.09837970833332577,
          "durationTicks": 1700,
          "midi": 57,
          "name": "A3",
          "ticks": 807400,
          "time": 46.72457441666668,
          "velocity": 0.49606299212598426
        },
        {
          "duration": 0.11921305833333662,
          "durationTicks": 2060,
          "midi": 62,
          "name": "D4",
          "ticks": 809860,
          "time": 46.86693564166667,
          "velocity": 0.4566929133858268
        },
        {
          "duration": 0.14236122499999482,
          "durationTicks": 2460,
          "midi": 60,
          "name": "C4",
          "ticks": 812800,
          "time": 47.037074666666676,
          "velocity": 0.4015748031496063
        },
        {
          "duration": 0.10879638333332764,
          "durationTicks": 1880,
          "midi": 57,
          "name": "A3",
          "ticks": 823020,
          "time": 47.62851032500001,
          "velocity": 0.33858267716535434
        },
        {
          "duration": 0.18055569999999932,
          "durationTicks": 3120,
          "midi": 62,
          "name": "D4",
          "ticks": 826360,
          "time": 47.82179751666667,
          "velocity": 0.3464566929133858
        },
        {
          "duration": 0.15972234999999557,
          "durationTicks": 2760,
          "midi": 59,
          "name": "B3",
          "ticks": 829920,
          "time": 48.027816200000004,
          "velocity": 0.3858267716535433
        },
        {
          "duration": 0.160879758333337,
          "durationTicks": 2780,
          "midi": 62,
          "name": "D4",
          "ticks": 833120,
          "time": 48.21300153333333,
          "velocity": 0.4330708661417323
        },
        {
          "duration": 0.13888899999999893,
          "durationTicks": 2400,
          "midi": 57,
          "name": "A3",
          "ticks": 836980,
          "time": 48.436381341666674,
          "velocity": 0.3779527559055118
        },
        {
          "duration": 0.23032425833334003,
          "durationTicks": 3980,
          "midi": 62,
          "name": "D4",
          "ticks": 840360,
          "time": 48.63198335,
          "velocity": 0.4330708661417323
        },
        {
          "duration": 0.1458334499999907,
          "durationTicks": 2520,
          "midi": 55,
          "name": "G3",
          "ticks": 844580,
          "time": 48.876196508333344,
          "velocity": 0.3858267716535433
        },
        {
          "duration": 0.1724538416666661,
          "durationTicks": 2980,
          "midi": 62,
          "name": "D4",
          "ticks": 851620,
          "time": 49.283604241666666,
          "velocity": 0.4251968503937008
        },
        {
          "duration": 0.09259266666666122,
          "durationTicks": 1600,
          "midi": 60,
          "name": "C4",
          "ticks": 854640,
          "time": 49.45837290000001,
          "velocity": 0.48031496062992124
        },
        {
          "duration": 0.1412038166666676,
          "durationTicks": 2440,
          "midi": 59,
          "name": "B3",
          "ticks": 856940,
          "time": 49.591474858333335,
          "velocity": 0.44881889763779526
        },
        {
          "duration": 0.1574075333333269,
          "durationTicks": 2720,
          "midi": 60,
          "name": "C4",
          "ticks": 859480,
          "time": 49.738465716666674,
          "velocity": 0.4645669291338583
        },
        {
          "duration": 0.1342593666666687,
          "durationTicks": 2320,
          "midi": 62,
          "name": "D4",
          "ticks": 862560,
          "time": 49.916706600000005,
          "velocity": 0.5118110236220472
        },
        {
          "duration": 0.13310195833332727,
          "durationTicks": 2300,
          "midi": 60,
          "name": "C4",
          "ticks": 865020,
          "time": 50.05906782500001,
          "velocity": 0.4330708661417323
        },
        {
          "duration": 0.10185193333332876,
          "durationTicks": 1760,
          "midi": 59,
          "name": "B3",
          "ticks": 868280,
          "time": 50.24772538333334,
          "velocity": 0.4094488188976378
        },
        {
          "duration": 0.39930587499999604,
          "durationTicks": 6900,
          "midi": 55,
          "name": "G3",
          "ticks": 878780,
          "time": 50.855364758333344,
          "velocity": 0.23622047244094488
        },
        {
          "duration": 0.2824076333333352,
          "durationTicks": 4880,
          "midi": 57,
          "name": "A3",
          "ticks": 886120,
          "time": 51.28013361666667,
          "velocity": 0.3858267716535433
        },
        {
          "duration": 0.2569446500000012,
          "durationTicks": 4440,
          "midi": 59,
          "name": "B3",
          "ticks": 891340,
          "time": 51.58221719166667,
          "velocity": 0.4409448818897638
        },
        {
          "duration": 0.2592594666666628,
          "durationTicks": 4480,
          "midi": 57,
          "name": "A3",
          "ticks": 896100,
          "time": 51.85768037500001,
          "velocity": 0.4251968503937008
        },
        {
          "duration": 0.2685187333333303,
          "durationTicks": 4640,
          "midi": 55,
          "name": "G3",
          "ticks": 901180,
          "time": 52.15166209166667,
          "velocity": 0.44881889763779526
        },
        {
          "duration": 0.2372687083333318,
          "durationTicks": 4100,
          "midi": 57,
          "name": "A3",
          "ticks": 906080,
          "time": 52.43522713333334,
          "velocity": 0.4881889763779528
        },
        {
          "duration": 0.2905094916666684,
          "durationTicks": 5020,
          "midi": 59,
          "name": "B3",
          "ticks": 910680,
          "time": 52.701431050000004,
          "velocity": 0.47244094488188976
        },
        {
          "duration": 0.09490748333332988,
          "durationTicks": 1640,
          "midi": 57,
          "name": "A3",
          "ticks": 915960,
          "time": 53.006986850000004,
          "velocity": 0.4645669291338583
        },
        {
          "duration": 0.043981516666661946,
          "durationTicks": 760,
          "midi": 60,
          "name": "C4",
          "ticks": 920640,
          "time": 53.27782040000001,
          "velocity": 0.5748031496062992
        },
        {
          "duration": 0.041666699999993284,
          "durationTicks": 720,
          "midi": 60,
          "name": "C4",
          "ticks": 923480,
          "time": 53.44217238333334,
          "velocity": 0.5511811023622047
        },
        {
          "duration": 0.11342601666667207,
          "durationTicks": 1960,
          "midi": 60,
          "name": "C4",
          "ticks": 926060,
          "time": 53.59147805833334,
          "velocity": 0.5590551181102362
        },
        {
          "duration": 0.07175931666666457,
          "durationTicks": 1240,
          "midi": 59,
          "name": "B3",
          "ticks": 928660,
          "time": 53.74194114166667,
          "velocity": 0.5984251968503937
        },
        {
          "duration": 0.07523154166666757,
          "durationTicks": 1300,
          "midi": 57,
          "name": "A3",
          "ticks": 931560,
          "time": 53.90976535,
          "velocity": 0.6220472440944882
        },
        {
          "duration": 0.05439819166666382,
          "durationTicks": 940,
          "midi": 59,
          "name": "B3",
          "ticks": 934280,
          "time": 54.06717288333334,
          "velocity": 0.4645669291338583
        },
        {
          "duration": 0.10416674999999742,
          "durationTicks": 1800,
          "midi": 55,
          "name": "G3",
          "ticks": 937260,
          "time": 54.239626725,
          "velocity": 0.4881889763779528
        },
        {
          "duration": 0.04282410833333472,
          "durationTicks": 740,
          "midi": 57,
          "name": "A3",
          "ticks": 943200,
          "time": 54.583377000000006,
          "velocity": 0.5511811023622047
        },
        {
          "duration": 0.04629633333333061,
          "durationTicks": 800,
          "midi": 57,
          "name": "A3",
          "ticks": 946580,
          "time": 54.778979008333344,
          "velocity": 0.5511811023622047
        },
        {
          "duration": 0.1296297333333314,
          "durationTicks": 2240,
          "midi": 59,
          "name": "B3",
          "ticks": 949560,
          "time": 54.95143285,
          "velocity": 0.6535433070866141
        },
        {
          "duration": 0.046296333333337714,
          "durationTicks": 800,
          "midi": 60,
          "name": "C4",
          "ticks": 952540,
          "time": 55.12388669166667,
          "velocity": 0.5433070866141733
        },
        {
          "duration": 0.04513892500000338,
          "durationTicks": 780,
          "midi": 57,
          "name": "A3",
          "ticks": 956300,
          "time": 55.34147945833334,
          "velocity": 0.5196850393700787
        },
        {
          "duration": 0.053240783333336594,
          "durationTicks": 920,
          "midi": 57,
          "name": "A3",
          "ticks": 959900,
          "time": 55.549812958333334,
          "velocity": 0.6299212598425197
        },
        {
          "duration": 0.19212978333332842,
          "durationTicks": 3320,
          "midi": 59,
          "name": "B3",
          "ticks": 963740,
          "time": 55.77203535833334,
          "velocity": 0.5826771653543307
        },
        {
          "duration": 0.09375007500000265,
          "durationTicks": 1620,
          "midi": 60,
          "name": "C4",
          "ticks": 967760,
          "time": 56.00467443333334,
          "velocity": 0.5511811023622047
        },
        {
          "duration": 0.16666680000000156,
          "durationTicks": 2880,
          "midi": 57,
          "name": "A3",
          "ticks": 972780,
          "time": 56.295183925,
          "velocity": 0.4094488188976378
        },
        {
          "duration": 0.18518533333333664,
          "durationTicks": 3200,
          "midi": 62,
          "name": "D4",
          "ticks": 976240,
          "time": 56.49541556666667,
          "velocity": 0.4645669291338583
        },
        {
          "duration": 0.16898161666666311,
          "durationTicks": 2920,
          "midi": 59,
          "name": "B3",
          "ticks": 979640,
          "time": 56.69217498333334,
          "velocity": 0.4409448818897638
        },
        {
          "duration": 0.19212978333333552,
          "durationTicks": 3320,
          "midi": 62,
          "name": "D4",
          "ticks": 983500,
          "time": 56.91555479166667,
          "velocity": 0.3858267716535433
        },
        {
          "duration": 0.14814826666666647,
          "durationTicks": 2560,
          "midi": 57,
          "name": "A3",
          "ticks": 987260,
          "time": 57.13314755833334,
          "velocity": 0.3700787401574803
        },
        {
          "duration": 0.21180572499999784,
          "durationTicks": 3660,
          "midi": 62,
          "name": "D4",
          "ticks": 990680,
          "time": 57.33106438333334,
          "velocity": 0.3858267716535433
        },
        {
          "duration": 0.19444459999999708,
          "durationTicks": 3360,
          "midi": 55,
          "name": "G3",
          "ticks": 994780,
          "time": 57.56833309166667,
          "velocity": 0.33070866141732286
        },
        {
          "duration": 0.087963033333331,
          "durationTicks": 1520,
          "midi": 57,
          "name": "A3",
          "ticks": 1001940,
          "time": 57.98268527500001,
          "velocity": 0.3858267716535433
        },
        {
          "duration": 0.14004640833333326,
          "durationTicks": 2420,
          "midi": 62,
          "name": "D4",
          "ticks": 1004580,
          "time": 58.135463175000005,
          "velocity": 0.44881889763779526
        },
        {
          "duration": 0.14699085833333214,
          "durationTicks": 2540,
          "midi": 60,
          "name": "C4",
          "ticks": 1007300,
          "time": 58.29287070833334,
          "velocity": 0.49606299212598426
        },
        {
          "duration": 0.11689824166666085,
          "durationTicks": 2020,
          "midi": 59,
          "name": "B3",
          "ticks": 1010060,
          "time": 58.45259305833334,
          "velocity": 0.4566929133858268
        },
        {
          "duration": 0.12152787499999818,
          "durationTicks": 2100,
          "midi": 57,
          "name": "A3",
          "ticks": 1012460,
          "time": 58.59148205833334,
          "velocity": 0.5118110236220472
        },
        {
          "duration": 0.11342601666667207,
          "durationTicks": 1960,
          "midi": 62,
          "name": "D4",
          "ticks": 1015280,
          "time": 58.75467663333334,
          "velocity": 0.44881889763779526
        },
        {
          "duration": 0.09143525833332689,
          "durationTicks": 1580,
          "midi": 60,
          "name": "C4",
          "ticks": 1018040,
          "time": 58.91439898333334,
          "velocity": 0.3779527559055118
        },
        {
          "duration": 0.13194455000000715,
          "durationTicks": 2280,
          "midi": 57,
          "name": "A3",
          "ticks": 1027720,
          "time": 59.47458461666667,
          "velocity": 0.28346456692913385
        },
        {
          "duration": 0.17129643333333178,
          "durationTicks": 2960,
          "midi": 62,
          "name": "D4",
          "ticks": 1031320,
          "time": 59.68291811666667,
          "velocity": 0.3858267716535433
        },
        {
          "duration": 0.160879758333337,
          "durationTicks": 2780,
          "midi": 59,
          "name": "B3",
          "ticks": 1035000,
          "time": 59.89588125,
          "velocity": 0.36220472440944884
        },
        {
          "duration": 0.18055569999999221,
          "durationTicks": 3120,
          "midi": 62,
          "name": "D4",
          "ticks": 1038400,
          "time": 60.092640666666675,
          "velocity": 0.4330708661417323
        },
        {
          "duration": 0.14236122500000192,
          "durationTicks": 2460,
          "midi": 57,
          "name": "A3",
          "ticks": 1042120,
          "time": 60.30791861666667,
          "velocity": 0.3700787401574803
        },
        {
          "duration": 0.2025464583333374,
          "durationTicks": 3500,
          "midi": 62,
          "name": "D4",
          "ticks": 1045520,
          "time": 60.504678033333334,
          "velocity": 0.3937007874015748
        },
        {
          "duration": 0.16203716666666423,
          "durationTicks": 2800,
          "midi": 55,
          "name": "G3",
          "ticks": 1049880,
          "time": 60.756993050000005,
          "velocity": 0.33858267716535434
        },
        {
          "duration": 0.1412038166666747,
          "durationTicks": 2440,
          "midi": 62,
          "name": "D4",
          "ticks": 1057840,
          "time": 61.21764156666667,
          "velocity": 0.3779527559055118
        },
        {
          "duration": 0.11921305833332951,
          "durationTicks": 2060,
          "midi": 60,
          "name": "C4",
          "ticks": 1060780,
          "time": 61.387780591666676,
          "velocity": 0.47244094488188976
        },
        {
          "duration": 0.1412038166666676,
          "durationTicks": 2440,
          "midi": 59,
          "name": "B3",
          "ticks": 1063120,
          "time": 61.52319736666667,
          "velocity": 0.4409448818897638
        },
        {
          "duration": 0.13310195833333438,
          "durationTicks": 2300,
          "midi": 60,
          "name": "C4",
          "ticks": 1065660,
          "time": 61.670188225000004,
          "velocity": 0.5275590551181102
        },
        {
          "duration": 0.13888899999999893,
          "durationTicks": 2400,
          "midi": 62,
          "name": "D4",
          "ticks": 1068160,
          "time": 61.814864266666675,
          "velocity": 0.5748031496062992
        },
        {
          "duration": 0.15509271666667246,
          "durationTicks": 2680,
          "midi": 60,
          "name": "C4",
          "ticks": 1070580,
          "time": 61.954910675,
          "velocity": 0.4409448818897638
        },
        {
          "duration": 0.06944449999999591,
          "durationTicks": 1200,
          "midi": 59,
          "name": "B3",
          "ticks": 1073860,
          "time": 62.144725641666675,
          "velocity": 0.4094488188976378
        },
        {
          "duration": 0.47685223333333226,
          "durationTicks": 8240,
          "midi": 55,
          "name": "G3",
          "ticks": 1083280,
          "time": 62.689864966666676,
          "velocity": 0.2992125984251969
        },
        {
          "duration": 0.3321761916666688,
          "durationTicks": 5740,
          "midi": 57,
          "name": "A3",
          "ticks": 1091800,
          "time": 63.182920916666674,
          "velocity": 0.4094488188976378
        },
        {
          "duration": 0.2939817166666643,
          "durationTicks": 5080,
          "midi": 59,
          "name": "B3",
          "ticks": 1097880,
          "time": 63.534773050000005,
          "velocity": 0.4409448818897638
        },
        {
          "duration": 0.2523150166666568,
          "durationTicks": 4360,
          "midi": 57,
          "name": "A3",
          "ticks": 1103380,
          "time": 63.853060341666676,
          "velocity": 0.4015748031496063
        },
        {
          "duration": 0.27777799999999786,
          "durationTicks": 4800,
          "midi": 55,
          "name": "G3",
          "ticks": 1108320,
          "time": 64.13894020000001,
          "velocity": 0.48031496062992124
        },
        {
          "duration": 0.2800928166666665,
          "durationTicks": 4840,
          "midi": 57,
          "name": "A3",
          "ticks": 1113200,
          "time": 64.42134783333334,
          "velocity": 0.5354330708661418
        },
        {
          "duration": 0.29629653333333295,
          "durationTicks": 5120,
          "midi": 59,
          "name": "B3",
          "ticks": 1118080,
          "time": 64.70375546666668,
          "velocity": 0.6299212598425197
        },
        {
          "duration": 0.274305775000002,
          "durationTicks": 4740,
          "midi": 57,
          "name": "A3",
          "ticks": 1123220,
          "time": 65.00120940833334,
          "velocity": 0.5511811023622047
        },
        {
          "duration": 0.18287051666666798,
          "durationTicks": 3160,
          "midi": 55,
          "name": "G3",
          "ticks": 1128800,
          "time": 65.32412633333334,
          "velocity": 0.49606299212598426
        },
        {
          "duration": 0.14814826666666647,
          "durationTicks": 2560,
          "midi": 57,
          "name": "A3",
          "ticks": 1131780,
          "time": 65.496580175,
          "velocity": 0.5354330708661418
        },
        {
          "duration": 0.15509271666667246,
          "durationTicks": 2680,
          "midi": 59,
          "name": "B3",
          "ticks": 1134100,
          "time": 65.63083954166667,
          "velocity": 0.5039370078740157
        },
        {
          "duration": 0.160879758333337,
          "durationTicks": 2780,
          "midi": 60,
          "name": "C4",
          "ticks": 1136440,
          "time": 65.76625631666667,
          "velocity": 0.6220472440944882
        },
        {
          "duration": 0.15162049166666236,
          "durationTicks": 2620,
          "midi": 62,
          "name": "D4",
          "ticks": 1138940,
          "time": 65.91093235833334,
          "velocity": 0.6141732283464567
        },
        {
          "duration": 0.04282410833333472,
          "durationTicks": 740,
          "midi": 62,
          "name": "D4",
          "ticks": 1149200,
          "time": 66.50468283333333,
          "velocity": 0.5984251968503937
        },
        {
          "duration": 0.03935188333332462,
          "durationTicks": 680,
          "midi": 60,
          "name": "C4",
          "ticks": 1149300,
          "time": 66.51046987500001,
          "velocity": 0.5748031496062992
        },
        {
          "duration": 0.03935188333332462,
          "durationTicks": 680,
          "midi": 62,
          "name": "D4",
          "ticks": 1152440,
          "time": 66.69218298333334,
          "velocity": 0.6377952755905512
        },
        {
          "duration": 0.041666700000007495,
          "durationTicks": 720,
          "midi": 60,
          "name": "C4",
          "ticks": 1152460,
          "time": 66.69334039166667,
          "velocity": 0.5433070866141733
        },
        {
          "duration": 0.038194474999997396,
          "durationTicks": 660,
          "midi": 60,
          "name": "C4",
          "ticks": 1156120,
          "time": 66.90514611666667,
          "velocity": 0.7401574803149606
        },
        {
          "duration": 0.059027825000001144,
          "durationTicks": 1020,
          "midi": 60,
          "name": "C4",
          "ticks": 1161120,
          "time": 67.19449820000001,
          "velocity": 0.7874015748031497
        },
        {
          "duration": 1.0833342000000101,
          "durationTicks": 18720,
          "midi": 60,
          "name": "C4",
          "ticks": 1169520,
          "time": 67.6806097,
          "velocity": 0.8582677165354331
        }
      ],
      "endOfTrackTicks": 1263360
    },
    {
      "channel": 0,
      "controlChanges": {},
      "pitchBends": [],
      "instrument": {
        "family": "piano",
        "number": 0,
        "name": "acoustic grand piano"
      },
      "name": "Kontakt Piano.1",
      "notes": [],
      "endOfTrackTicks": 0
    },
    {
      "channel": 0,
      "controlChanges": {},
      "pitchBends": [],
      "instrument": {
        "family": "piano",
        "number": 0,
        "name": "acoustic grand piano"
      },
      "name": "GEN AUDIO.dup1",
      "notes": [],
      "endOfTrackTicks": 0
    },
    {
      "channel": 0,
      "controlChanges": {},
      "pitchBends": [],
      "instrument": {
        "family": "piano",
        "number": 0,
        "name": "acoustic grand piano"
      },
      "name": "Track 1",
      "notes": [],
      "endOfTrackTicks": 0
    },
    {
      "channel": 0,
      "controlChanges": {},
      "pitchBends": [],
      "instrument": {
        "family": "piano",
        "number": 0,
        "name": "acoustic grand piano"
      },
      "name": "Track 2",
      "notes": [],
      "endOfTrackTicks": 0
    },
    {
      "channel": 0,
      "controlChanges": {},
      "pitchBends": [],
      "instrument": {
        "family": "piano",
        "number": 0,
        "name": "acoustic grand piano"
      },
      "name": "No",
      "notes": [],
      "endOfTrackTicks": 0
    }
  ]
}
